<svg xmlns="http://www.w3.org/2000/svg" version="1.1"
    xmlns:xlink="http://www.w3.org/1999/xlink"
    xmlns:svgjs="http://svgjs.com/svgjs" width="512" height="512" x="0" y="0" viewBox="0 0 512 512" style="enable-background:new 0 0 512 512" xml:space="preserve" class="">
    <g>
        <g xmlns="http://www.w3.org/2000/svg">
            <g>
                <path d="m24.067 405.1v66.267c0 18.299 14.834 33.133 33.132 33.133h397.601c18.299 0 33.132-14.834 33.132-33.133v-66.267z" fill="#b5dbff" data-original="#b5dbff"></path>
                <path d="m464.933 405.1v66.268c0 18.298-14.834 33.132-33.132 33.132h23c18.299 0 33.132-14.834 33.132-33.132v-66.268z" fill="#97d0ff" data-original="#97d0ff"></path>
                <path d="m24.067 140.033v298.2c0 18.298 14.834 33.132 33.132 33.132h397.601c18.299 0 33.132-14.834 33.132-33.132v-298.2z" fill="#edf5ff" data-original="#edf5ff" class=""></path>
                <path d="m464.933 140.033v298.2c0 18.298-14.834 33.132-33.132 33.132h23c18.299 0 33.132-14.834 33.132-33.132v-298.2z" fill="#d5e8fe" data-original="#d5e8fe"></path>
                <path d="m487.933 156.6v-82.834c0-18.299-14.834-33.132-33.132-33.132h-397.601c-18.299 0-33.132 14.834-33.132 33.132v82.834z" fill="#ff435b" data-original="#ff435b" class=""></path>
                <path d="m123.467 73.767c0 9.149 7.417 16.567 16.567 16.567s16.567-7.417 16.567-16.567v-49.7c0-9.15-7.417-16.567-16.567-16.567-9.149 0-16.567 7.417-16.567 16.567z" fill="#596c76" data-original="#596c76"></path>
                <path d="m355.4 73.767c0 9.149 7.417 16.567 16.567 16.567s16.567-7.417 16.567-16.567v-49.7c0-9.15-7.417-16.567-16.567-16.567s-16.567 7.417-16.567 16.567z" fill="#596c76" data-original="#596c76"></path>
                <path d="m454.8 40.633h-23c18.299 0 33.132 14.834 33.132 33.132v82.835h23v-82.834c.001-18.299-14.833-33.133-33.132-33.133z" fill="#e3374e" data-original="#e3374e"></path>
            </g>
            <g fill="#596c76">
                <path d="m264.283 268.425c0-34.256-27.869-62.125-62.125-62.125s-62.125 27.869-62.125 62.125c0 9.15 7.417 16.567 16.567 16.567s16.567-7.417 16.567-16.567c0-15.986 13.005-28.992 28.992-28.992 15.986 0 28.992 13.005 28.992 28.992s-13.005 28.992-28.992 28.992c-9.15 0-16.567 7.417-16.567 16.567s7.417 16.567 16.567 16.567c15.986 0 28.992 13.005 28.992 28.992 0 15.986-13.005 28.992-28.992 28.992-15.986 0-28.992-13.005-28.992-28.992 0-9.15-7.417-16.567-16.567-16.567s-16.567 7.417-16.567 16.567c0 34.256 27.869 62.125 62.125 62.125s62.125-27.869 62.125-62.125c0-17.986-7.691-34.203-19.947-45.558 12.257-11.357 19.947-27.574 19.947-45.56z" fill="#596c76" data-original="#596c76"></path>
                <path d="m343.879 207.561c-6.191-2.566-13.317-1.146-18.054 3.592l-33.133 33.133c-6.47 6.469-6.47 16.959 0 23.428 6.469 6.469 16.959 6.469 23.428 0l4.853-4.853v142.239c0 9.15 7.417 16.567 16.567 16.567s16.567-7.417 16.567-16.567v-182.233c-.001-6.701-4.038-12.742-10.228-15.306z" fill="#596c76" data-original="#596c76"></path>
            </g>
        </g>
        <g xmlns="http://www.w3.org/2000/svg">
            <path d="m202.158 198.8c-38.392 0-69.625 31.233-69.625 69.625 0 13.271 10.796 24.067 24.066 24.067 13.271 0 24.067-10.796 24.067-24.067 0-11.851 9.641-21.492 21.491-21.492s21.492 9.641 21.492 21.492-9.642 21.492-21.492 21.492c-13.271 0-24.066 10.796-24.066 24.067s10.796 24.066 24.066 24.066c11.851 0 21.492 9.641 21.492 21.492s-9.642 21.492-21.492 21.492-21.491-9.641-21.491-21.492c0-13.27-10.797-24.066-24.067-24.066s-24.066 10.796-24.066 24.066c0 38.391 31.233 69.625 69.625 69.625s69.625-31.234 69.625-69.625c0-16.737-6.132-32.961-17.032-45.558 10.9-12.597 17.032-28.822 17.032-45.559 0-38.392-31.233-69.625-69.625-69.625zm37.081 120.685c11.149 10.329 17.544 24.929 17.544 40.056 0 30.12-24.505 54.625-54.625 54.625s-54.625-24.505-54.625-54.625c0-4.999 4.067-9.066 9.066-9.066 5 0 9.067 4.067 9.067 9.066 0 20.122 16.37 36.492 36.491 36.492 20.122 0 36.492-16.37 36.492-36.492s-16.37-36.492-36.492-36.492c-4.999 0-9.066-4.067-9.066-9.066 0-5 4.067-9.067 9.066-9.067 20.122 0 36.492-16.37 36.492-36.492s-16.37-36.492-36.492-36.492c-20.121 0-36.491 16.37-36.491 36.492 0 4.999-4.067 9.067-9.067 9.067-4.999 0-9.066-4.067-9.066-9.067 0-30.12 24.505-54.625 54.625-54.625s54.625 24.505 54.625 54.625c0 15.127-6.395 29.727-17.544 40.057-1.532 1.419-2.403 3.414-2.403 5.502s.871 4.083 2.403 5.502z" fill="#000000" data-original="#000000" class=""></path>
            <path d="m346.749 200.632c-9.023-3.74-19.317-1.693-26.227 5.217l-33.134 33.133c-9.383 9.383-9.383 24.652.001 34.036 7.039 7.038 17.391 8.797 26.084 5.275v126.807c0 13.27 10.796 24.066 24.066 24.066s24.066-10.796 24.066-24.066v-182.233c0-9.769-5.832-18.497-14.856-22.235zm-.144 204.468c0 4.999-4.067 9.066-9.066 9.066s-9.066-4.067-9.066-9.066v-142.238c0-3.034-1.827-5.768-4.63-6.929-.928-.384-1.902-.571-2.868-.571-1.952 0-3.87.762-5.306 2.197l-4.852 4.852c-3.536 3.536-9.288 3.535-12.822 0-3.535-3.535-3.535-9.287 0-12.822l33.133-33.133c2.604-2.604 6.48-3.376 9.879-1.967h.002c3.4 1.409 5.597 4.697 5.597 8.377v182.234z" fill="#000000" data-original="#000000" class=""></path>
            <path d="m454.801 33.133h-58.768v-9.066c0-13.271-10.796-24.067-24.066-24.067s-24.067 10.796-24.067 24.067v9.066h-183.8v-9.066c0-13.271-10.796-24.067-24.067-24.067s-24.066 10.796-24.066 24.067v9.066h-58.768c-22.404 0-40.632 18.228-40.632 40.632v397.602c0 22.405 18.227 40.632 40.632 40.632h51.268c4.143 0 7.5-3.358 7.5-7.5s-3.357-7.5-7.5-7.5h-51.268c-14.134 0-25.632-11.499-25.632-25.632v-1.635c6.997 5.705 15.921 9.134 25.632 9.134h397.602c9.711 0 18.634-3.429 25.632-9.134v1.635c0 14.134-11.498 25.632-25.632 25.632h-316.334c-4.143 0-7.5 3.358-7.5 7.5s3.357 7.5 7.5 7.5h316.334c22.404 0 40.632-18.228 40.632-40.632v-397.601c0-22.405-18.228-40.633-40.632-40.633zm-91.901-9.066c0-5 4.067-9.067 9.066-9.067s9.066 4.067 9.066 9.067v49.7c0 4.999-4.067 9.067-9.066 9.067s-9.066-4.067-9.066-9.067zm-231.933 0c0-5 4.067-9.067 9.066-9.067s9.066 4.067 9.066 9.067v49.7c0 4.999-4.067 9.067-9.066 9.067s-9.066-4.067-9.066-9.067zm-73.768 24.066h58.768v18.133h-9.067c-4.143 0-7.5 3.358-7.5 7.5s3.357 7.5 7.5 7.5h10.269c3.16 9.608 12.211 16.567 22.864 16.567 10.652 0 19.704-6.959 22.863-16.567h10.27c4.143 0 7.5-3.358 7.5-7.5s-3.357-7.5-7.5-7.5h-9.066v-18.133h183.8v18.133h-9.067c-4.143 0-7.5 3.358-7.5 7.5s3.357 7.5 7.5 7.5h10.27c3.16 9.608 12.212 16.567 22.863 16.567 10.652 0 19.704-6.959 22.863-16.567h10.271c4.143 0 7.5-3.358 7.5-7.5s-3.357-7.5-7.5-7.5h-9.066v-18.133h58.768c14.134 0 25.632 11.499 25.632 25.632v42.201h-93.466c-4.143 0-7.5 3.358-7.5 7.5s3.357 7.5 7.5 7.5h93.466v18.134h-448.867v-18.133h325.399c4.143 0 7.5-3.358 7.5-7.5s-3.357-7.5-7.5-7.5h-325.399v-42.201c0-14.134 11.498-25.633 25.632-25.633zm397.602 415.733h-397.602c-14.134 0-25.632-11.499-25.632-25.632v-274.134h448.865v274.134c.001 14.134-11.497 25.632-25.631 25.632z" fill="#000000" data-original="#000000" class=""></path>
        </g>
    </g>
</svg>