<svg xmlns="http://www.w3.org/2000/svg" version="1.1"
    xmlns:xlink="http://www.w3.org/1999/xlink"
    xmlns:svgjs="http://svgjs.com/svgjs" width="512" height="512" x="0" y="0" viewBox="0 0 64 64" style="enable-background:new 0 0 512 512" xml:space="preserve" class="">
    <g>
        <g xmlns="http://www.w3.org/2000/svg" id="Icons">
            <g>
                <g>
                    <g>
                        <path d="m46 60h6c1.105 0 2-.895 2-2v-52c0-1.105-.895-2-2-2h-6c-1.105 0-2 .895-2 2v52c0 1.105.895 2 2 2z" fill="#00a0c8" data-original="#00a0c8" class=""></path>
                    </g>
                    <g>
                        <path d="m52 60c1.105 0 2-.895 2-2v-52c0-1.105-.895-2-2-2z" fill="#0082aa" data-original="#0082aa"></path>
                    </g>
                    <g>
                        <g>
                            <path d="m45 9h-1v-2h1c.552 0 1 .448 1 1 0 .552-.448 1-1 1z" fill="#0a5078" data-original="#0a5078" class=""></path>
                        </g>
                        <g>
                            <path d="m45 17h-1v-2h1c.552 0 1 .448 1 1 0 .552-.448 1-1 1z" fill="#0a5078" data-original="#0a5078" class=""></path>
                        </g>
                        <g>
                            <path d="m45 25h-1v-2h1c.552 0 1 .448 1 1 0 .552-.448 1-1 1z" fill="#0a5078" data-original="#0a5078" class=""></path>
                        </g>
                        <g>
                            <path d="m45 33h-1v-2h1c.552 0 1 .448 1 1 0 .552-.448 1-1 1z" fill="#0a5078" data-original="#0a5078" class=""></path>
                        </g>
                        <g>
                            <path d="m45 41h-1v-2h1c.552 0 1 .448 1 1 0 .552-.448 1-1 1z" fill="#0a5078" data-original="#0a5078" class=""></path>
                        </g>
                        <g>
                            <path d="m45 49h-1v-2h1c.552 0 1 .448 1 1 0 .552-.448 1-1 1z" fill="#0a5078" data-original="#0a5078" class=""></path>
                        </g>
                        <g>
                            <path d="m45 57h-1v-2h1c.552 0 1 .448 1 1 0 .552-.448 1-1 1z" fill="#0a5078" data-original="#0a5078" class=""></path>
                        </g>
                    </g>
                </g>
                <g>
                    <g>
                        <path d="m28 4h-4c-2.209 0-4 1.791-4 4v4h12v-4c0-2.209-1.791-4-4-4z" fill="#0a5078" data-original="#0a5078" class=""></path>
                    </g>
                    <g>
                        <path d="m12 32h6v16h-6z" fill="#f0c8a0" data-original="#f0c8a0" class=""></path>
                    </g>
                    <g>
                        <path d="m34 32h6v16h-6z" fill="#f0c8a0" data-original="#f0c8a0" class=""></path>
                    </g>
                    <g>
                        <path d="m18 20h16v22h-16z" fill="#c80a50" data-original="#c80a50" class=""></path>
                    </g>
                    <g>
                        <path d="m26 24c-1.657 0-3-1.343-3-3v-5h6v5c0 1.657-1.343 3-3 3z" fill="#d2aa82" data-original="#d2aa82" class=""></path>
                    </g>
                    <g>
                        <path d="m20 14v-4c-1.105 0-2 .895-2 2 0 1.105.895 2 2 2z" fill="#d2aa82" data-original="#d2aa82" class=""></path>
                    </g>
                    <g>
                        <path d="m32 14v-4c1.105 0 2 .895 2 2 0 1.105-.895 2-2 2z" fill="#d2aa82" data-original="#d2aa82" class=""></path>
                    </g>
                    <g>
                        <path d="m12 32h6v-12c-3.314 0-6 2.686-6 6z" fill="#a00028" data-original="#a00028"></path>
                    </g>
                    <g>
                        <path d="m40 32h-6v-12c3.314 0 6 2.686 6 6z" fill="#a00028" data-original="#a00028"></path>
                    </g>
                    <g>
                        <path d="m30 8h-8c-.552 0-1 .448-1 1v2c0 .552-.448 1-1 1v3c0 2.209 1.791 4 4 4h4c2.209 0 4-1.791 4-4v-3c-.552 0-1-.448-1-1v-2c0-.552-.448-1-1-1z" fill="#f0c8a0" data-original="#f0c8a0" class=""></path>
                    </g>
                </g>
                <g>
                    <path d="m45 42h-1v16c0 .931.639 1.706 1.5 1.929.861-.223 1.5-.998 1.5-1.929v-14c0-1.105-.895-2-2-2z" fill="#0082aa" data-original="#0082aa"></path>
                </g>
                <g>
                    <path d="m18 42h16v6h-16z" fill="#0a5078" data-original="#0a5078" class=""></path>
                </g>
                <g>
                    <path d="m44 60h-36c-1.105 0-2-.895-2-2v-14c0-1.105.895-2 2-2h36c1.105 0 2 .895 2 2v14c0 1.105-.895 2-2 2z" fill="#fab400" data-original="#fab400"></path>
                </g>
                <g fill="#be7800">
                    <path d="m20 48c0-2.206-1.794-4-4-4h-3c-.553 0-1 .448-1 1v12c0 .552.447 1 1 1h3c2.206 0 4-1.794 4-4 0-1.194-.526-2.266-1.357-3 .831-.734 1.357-1.806 1.357-3zm-2 6c0 1.103-.897 2-2 2h-2v-4h2c1.103 0 2 .897 2 2zm-4-4v-4h2c1.103 0 2 .897 2 2s-.897 2-2 2z" fill="#be7800" data-original="#be7800"></path>
                    <path d="m39 56h-1v-10h1c.553 0 1-.448 1-1s-.447-1-1-1h-4c-.553 0-1 .448-1 1s.447 1 1 1h1v10h-1c-.553 0-1 .448-1 1s.447 1 1 1h4c.553 0 1-.448 1-1s-.447-1-1-1z" fill="#be7800" data-original="#be7800"></path>
                    <path d="m31.383 44.076c-.374-.155-.804-.07-1.09.217l-3.293 3.293-3.293-3.293c-.286-.286-.716-.372-1.09-.217s-.617.52-.617.924v12c0 .552.447 1 1 1s1-.448 1-1v-9.586l2.293 2.293c.391.391 1.023.391 1.414 0l2.293-2.293v9.586c0 .552.447 1 1 1s1-.448 1-1v-12c0-.404-.243-.769-.617-.924z" fill="#be7800" data-original="#be7800"></path>
                </g>
                <g>
                    <path d="m12 41h6v1h-6z" fill="#d2aa82" data-original="#d2aa82" class=""></path>
                </g>
                <g>
                    <path d="m34 41h6v1h-6z" fill="#d2aa82" data-original="#d2aa82" class=""></path>
                </g>
                <g>
                    <path d="m18 41h16v1h-16z" fill="#a00028" data-original="#a00028"></path>
                </g>
            </g>
        </g>
    </g>
</svg>