<svg xmlns="http://www.w3.org/2000/svg" version="1.1"
    xmlns:xlink="http://www.w3.org/1999/xlink"
    xmlns:svgjs="http://svgjs.com/svgjs" width="512" height="512" x="0" y="0" viewBox="0 0 512 512" style="enable-background:new 0 0 512 512" xml:space="preserve" class="">
    <g>
        <g xmlns="http://www.w3.org/2000/svg">
            <path d="m512 110v332c0 24.81-20.19 45-45 45h-422c-24.81 0-45-20.19-45-45v-332c0-24.81 20.19-45 45-45h422c24.81 0 45 20.19 45 45z" fill="#eef4ff" data-original="#eef4ff" class=""></path>
            <path d="m512 110v332c0 24.81-20.19 45-45 45h-211v-422h211c24.81 0 45 20.19 45 45z" fill="#d9e6fc" data-original="#d9e6fc"></path>
            <path d="m512 110v74c0 8.28-6.72 15-15 15h-482c-8.28 0-15-6.72-15-15v-74c0-24.81 20.19-45 45-45h422c24.81 0 45 20.19 45 45z" fill="#dd5958" data-original="#dd5958"></path>
            <path d="m512 110v74c0 8.28-6.72 15-15 15h-241v-134h211c24.81 0 45 20.19 45 45z" fill="#d8225b" data-original="#d8225b"></path>
            <path d="m96 135c-8.284 0-15-6.716-15-15v-80c0-8.284 6.716-15 15-15s15 6.716 15 15v80c0 8.284-6.716 15-15 15z" fill="#ffe278" data-original="#ffe278" class=""></path>
            <path d="m271 40v80c0 8.28-6.72 15-15 15s-15-6.72-15-15v-80c0-8.28 6.72-15 15-15s15 6.72 15 15z" fill="#ffe278" data-original="#ffe278" class=""></path>
            <path d="m271 40v80c0 8.28-6.72 15-15 15v-110c8.28 0 15 6.72 15 15z" fill="#ffb454" data-original="#ffb454"></path>
            <path d="m416 135c-8.284 0-15-6.716-15-15v-80c0-8.284 6.716-15 15-15s15 6.716 15 15v80c0 8.284-6.716 15-15 15z" fill="#ffb454" data-original="#ffb454"></path>
            <g fill="#425796">
                <path d="m144 279h-32c-8.284 0-15-6.716-15-15s6.716-15 15-15h32c8.284 0 15 6.716 15 15s-6.716 15-15 15z" fill="#425796" data-original="#425796"></path>
                <path d="m144 343h-32c-8.284 0-15-6.716-15-15s6.716-15 15-15h32c8.284 0 15 6.716 15 15s-6.716 15-15 15z" fill="#425796" data-original="#425796"></path>
                <path d="m144 407h-32c-8.284 0-15-6.716-15-15s6.716-15 15-15h32c8.284 0 15 6.716 15 15s-6.716 15-15 15z" fill="#425796" data-original="#425796"></path>
                <path d="m287 264c0 8.28-6.72 15-15 15h-32c-8.28 0-15-6.72-15-15s6.72-15 15-15h32c8.28 0 15 6.72 15 15z" fill="#425796" data-original="#425796"></path>
            </g>
            <path d="m287 264c0 8.28-6.72 15-15 15h-16v-30h16c8.28 0 15 6.72 15 15z" fill="#283758" data-original="#283758"></path>
            <path d="m287 328c0 8.28-6.72 15-15 15h-32c-8.28 0-15-6.72-15-15s6.72-15 15-15h32c8.28 0 15 6.72 15 15z" fill="#425796" data-original="#425796"></path>
            <path d="m272 343h-16v-30h16c8.28 0 15 6.72 15 15s-6.72 15-15 15z" fill="#283758" data-original="#283758"></path>
            <path d="m287 392c0 8.28-6.72 15-15 15h-32c-8.28 0-15-6.72-15-15s6.72-15 15-15h32c8.28 0 15 6.72 15 15z" fill="#425796" data-original="#425796"></path>
            <path d="m287 392c0 8.28-6.72 15-15 15h-16v-30h16c8.28 0 15 6.72 15 15z" fill="#283758" data-original="#283758"></path>
            <path d="m400 279h-32c-8.284 0-15-6.716-15-15s6.716-15 15-15h32c8.284 0 15 6.716 15 15s-6.716 15-15 15z" fill="#283758" data-original="#283758"></path>
            <path d="m400 343h-32c-8.284 0-15-6.716-15-15s6.716-15 15-15h32c8.284 0 15 6.716 15 15s-6.716 15-15 15z" fill="#283758" data-original="#283758"></path>
            <path d="m400 407h-32c-8.284 0-15-6.716-15-15s6.716-15 15-15h32c8.284 0 15 6.716 15 15s-6.716 15-15 15z" fill="#283758" data-original="#283758"></path>
        </g>
    </g>
</svg>