<svg xmlns="http://www.w3.org/2000/svg" version="1.1" xmlns:xlink="http://www.w3.org/1999/xlink" xmlns:svgjs="http://svgjs.com/svgjs" width="512" height="512" x="0" y="0" viewBox="0 5 58 58" style="enable-background:new 0 0 512 512" xml:space="preserve" class=""><g><g xmlns="http://www.w3.org/2000/svg" id="Icons"><g><g><path d="m8 34h24v18h-24c-2.209 0-4-1.791-4-4v-18c0 2.209 1.791 4 4 4z" fill="#dc9600" data-original="#dc9600"></path></g><g><path d="m8 45h24v-11h-24c-2.04 0-3.723-1.527-3.969-3.5-.02.164-.031.331-.031.5v17c0 .169.011.336.031.5.246-1.973 1.929-3.5 3.969-3.5z" fill="#be7800" data-original="#be7800"></path></g><g><g><path d="m46 4h-4c-5.523 0-10 4.477-10 10v2h6c5.523 0 10-4.477 10-10 0-1.105-.895-2-2-2z" fill="#00a0c8" data-original="#00a0c8"></path></g><g><path d="m32 14v2h3v-2c0-1.931-.551-3.735-1.502-5.265-.949 1.529-1.498 3.333-1.498 5.265z" fill="#0082aa" data-original="#0082aa"></path></g><g><path d="m32 24c-1.104 0-2-.896-2-2v-8c0-3.309-2.691-6-6-6-1.104 0-2-.896-2-2s.896-2 2-2c5.514 0 10 4.486 10 10v8c0 1.104-.896 2-2 2z" fill="#0a5078" data-original="#0a5078"></path></g><g><path d="m32 19.202c-.612-.624-1.281-1.191-2-1.692v4.49c0 1.104.896 2 2 2s2-.896 2-2v-4.49c-.719.501-1.388 1.068-2 1.692z" fill="#00325a" data-original="#00325a"></path></g><g><path d="m55.377 34.144c.579-1.873.777-3.914.5-6.032-.814-6.227-5.864-11.233-12.097-12.001-4.616-.569-8.859 1.112-11.78 4.092-2.921-2.981-7.164-4.661-11.78-4.092-6.233.768-11.282 5.775-12.097 12.001-.277 2.118-.08 4.159.5 6.032l.005.016c.001.002.001.004.002.006l5.815 18.794c1.262 4.078 5.063 7.04 9.555 7.04 1.918 0 3.71-.54 5.232-1.477 1.715-1.055 3.82-1.055 5.536 0 1.522.937 3.314 1.477 5.232 1.477 4.492 0 8.293-2.962 9.555-7.04l5.815-18.794c.001-.002.001-.004.002-.006z" fill="#c80a50" data-original="#c80a50" class=""></path></g></g><g><path d="m8 44h44v-18h-44c-2.209 0-4 1.791-4 4v18c0-2.209 1.791-4 4-4z" fill="#fab400" data-original="#fab400"></path></g><g><path d="m52 44h4c2.209 0 4-1.791 4-4v-10c0-2.209-1.791-4-4-4h-4z" fill="#0a5078" data-original="#0a5078"></path></g><g fill="#f0f0f0"><path d="m21 32c0-.552-.447-1-1-1s-1 .448-1 1c0 1.654-1.346 3-3 3h-1v-5c0-.552-.447-1-1-1s-1 .448-1 1v10c0 .552.447 1 1 1s1-.448 1-1v-3h1c1.654 0 3 1.346 3 3 0 .552.447 1 1 1s1-.448 1-1c0-1.634-.788-3.087-2.003-4 1.215-.913 2.003-2.366 2.003-4z" fill="#f0f0f0" data-original="#f0f0f0"></path><path d="m25.5 33h4.5c.553 0 1-.448 1-1s-.447-1-1-1h-4.5c-1.379 0-2.5 1.122-2.5 2.5v5c0 1.378 1.121 2.5 2.5 2.5h4.5c.553 0 1-.448 1-1s-.447-1-1-1h-4.5c-.275 0-.5-.224-.5-.5v-5c0-.276.225-.5.5-.5z" fill="#f0f0f0" data-original="#f0f0f0"></path><path d="m38 31h-4c-.553 0-1 .448-1 1s.447 1 1 1h4c.552 0 1 .449 1 1v1h-3c-1.654 0-3 1.346-3 3s1.346 3 3 3h2c1.654 0 3-1.346 3-3v-4c0-1.654-1.346-3-3-3zm1 7c0 .551-.448 1-1 1h-2c-.552 0-1-.449-1-1s.448-1 1-1h3z" fill="#f0f0f0" data-original="#f0f0f0"></path><path d="m44 29c-.553 0-1 .448-1 1v10c0 .552.447 1 1 1s1-.448 1-1v-10c0-.552-.447-1-1-1z" fill="#f0f0f0" data-original="#f0f0f0"></path></g><g><path d="m52.327 44h-40.654l.309 1h40.036z" fill="#a00028" data-original="#a00028"></path></g></g></g></g></svg>