<svg xmlns="http://www.w3.org/2000/svg" version="1.1"
    xmlns:xlink="http://www.w3.org/1999/xlink"
    xmlns:svgjs="http://svgjs.com/svgjs" width="512" height="512" x="0" y="0" viewBox="0 0 512 512" style="enable-background:new 0 0 512 512" xml:space="preserve" class="">
    <g>
        <circle xmlns="http://www.w3.org/2000/svg" style="" cx="256" cy="256" r="256" fill="#ffdc00" data-original="#ffdc00" class=""></circle>
        <path xmlns="http://www.w3.org/2000/svg" style="" d="M512,256c0-7.27-0.32-14.464-0.914-21.58L395,118.333L133.912,409.338l101.87,101.87  C242.453,511.729,249.195,512,256,512C397.385,512,512,397.385,512,256z" fill="#ffc000" data-original="#ffc000"></path>
        <circle xmlns="http://www.w3.org/2000/svg" style="" cx="256" cy="256" r="196" fill="#175d76" data-original="#175d76" class=""></circle>
        <path xmlns="http://www.w3.org/2000/svg" style="" d="M256,60v392c108.248,0,196-87.752,196-196S364.248,60,256,60z" fill="#00263f" data-original="#00263f"></path>
        <circle xmlns="http://www.w3.org/2000/svg" style="" cx="256" cy="256" r="153.34" fill="#ffffff" data-original="#ffffff" class=""></circle>
        <path xmlns="http://www.w3.org/2000/svg" style="" d="M256,102.662v306.675c84.686,0,153.338-68.652,153.338-153.338S340.686,102.662,256,102.662z" fill="#e0e0e0" data-original="#e0e0e0"></path>
        <polygon xmlns="http://www.w3.org/2000/svg" style="" points="221.568,327.837 205.106,316.479 246,257.213 246,142.852 266,142.852 266,263.443 " fill="#4d4d4d" data-original="#4d4d4d"></polygon>
        <polygon xmlns="http://www.w3.org/2000/svg" style="" points="266,142.852 256,142.852 256,277.936 266,263.443 " fill="#333333" data-original="#333333"></polygon>
        <rect xmlns="http://www.w3.org/2000/svg" x="99.26" y="246" style="" width="25.969" height="20" fill="#175d76" data-original="#175d76" class=""></rect>
        <rect xmlns="http://www.w3.org/2000/svg" x="386.77" y="246" style="" width="25.969" height="20" fill="#00263f" data-original="#00263f"></rect>
        <rect xmlns="http://www.w3.org/2000/svg" x="246" y="99.26" style="" width="20" height="25.968" fill="#175d76" data-original="#175d76" class=""></rect>
        <rect xmlns="http://www.w3.org/2000/svg" x="256" y="99.26" style="" width="10" height="25.968" fill="#00263f" data-original="#00263f"></rect>
        <rect xmlns="http://www.w3.org/2000/svg" x="246" y="386.77" style="" width="20" height="25.969" fill="#175d76" data-original="#175d76" class=""></rect>
        <rect xmlns="http://www.w3.org/2000/svg" x="256" y="386.77" style="" width="10" height="25.969" fill="#00263f" data-original="#00263f"></rect>
        <g xmlns="http://www.w3.org/2000/svg">
        </g>
        <g xmlns="http://www.w3.org/2000/svg">
        </g>
        <g xmlns="http://www.w3.org/2000/svg">
        </g>
        <g xmlns="http://www.w3.org/2000/svg">
        </g>
        <g xmlns="http://www.w3.org/2000/svg">
        </g>
        <g xmlns="http://www.w3.org/2000/svg">
        </g>
        <g xmlns="http://www.w3.org/2000/svg">
        </g>
        <g xmlns="http://www.w3.org/2000/svg">
        </g>
        <g xmlns="http://www.w3.org/2000/svg">
        </g>
        <g xmlns="http://www.w3.org/2000/svg">
        </g>
        <g xmlns="http://www.w3.org/2000/svg">
        </g>
        <g xmlns="http://www.w3.org/2000/svg">
        </g>
        <g xmlns="http://www.w3.org/2000/svg">
        </g>
        <g xmlns="http://www.w3.org/2000/svg">
        </g>
        <g xmlns="http://www.w3.org/2000/svg">
        </g>
    </g>
</svg>