<svg xmlns="http://www.w3.org/2000/svg" version="1.1"
    xmlns:xlink="http://www.w3.org/1999/xlink"
    xmlns:svgjs="http://svgjs.com/svgjs" width="512" height="512" x="0" y="0" viewBox="0 0 400 190" style="enable-background:new 0 0 512 512" xml:space="preserve" class="">
    <g>
        <path xmlns="http://www.w3.org/2000/svg" d="m376 64h-352c-13.253906 0-24 10.746094-24 24s10.746094 24 24 24h352c13.253906 0 24-10.746094 24-24s-10.746094-24-24-24zm0 0" fill="#ffffff" data-original="#aed0ff" class=""></path>
        <path xmlns="http://www.w3.org/2000/svg" d="m376 96h-352c-10.132812-.042969-19.148438-6.445312-22.527344-16-.949218 2.5625-1.4453122 5.269531-1.472656 8 0 13.253906 10.746094 24 24 24h352c13.253906 0 24-10.746094 24-24-.027344-2.730469-.523438-5.4375-1.472656-8-3.378906 9.554688-12.394532 15.957031-22.527344 16zm0 0" fill="#e7e4e4" data-original="#88bfef" class=""></path>
        <path xmlns="http://www.w3.org/2000/svg" d="m48 24h16c13.253906 0 24 10.746094 24 24v80c0 13.253906-10.746094 24-24 24h-16c-13.253906 0-24-10.746094-24-24v-80c0-13.253906 10.746094-24 24-24zm0 0" fill="#ff2f2f" data-original="#f063a3" class=""></path>
        <path xmlns="http://www.w3.org/2000/svg" d="m64 24h-9.472656c.949218 2.5625 1.445312 5.269531 1.472656 8v80c0 13.253906-10.746094 24-24 24h-6.527344c3.378906 9.554688 12.394532 15.957031 22.527344 16h16c13.253906 0 24-10.746094 24-24v-80c0-13.253906-10.746094-24-24-24zm0 0" fill="#e10000" data-original="#ed4591" class=""></path>
        <path xmlns="http://www.w3.org/2000/svg" d="m336 24h16c13.253906 0 24 10.746094 24 24v80c0 13.253906-10.746094 24-24 24h-16c-13.253906 0-24-10.746094-24-24v-80c0-13.253906 10.746094-24 24-24zm0 0" fill="#ff2f2f" data-original="#f063a3" class=""></path>
        <path xmlns="http://www.w3.org/2000/svg" d="m336 24h9.472656c-.949218 2.5625-1.445312 5.269531-1.472656 8v80c0 13.253906 10.746094 24 24 24h6.527344c-3.378906 9.554688-12.394532 15.957031-22.527344 16h-16c-13.253906 0-24-10.746094-24-24v-80c0-13.253906 10.746094-24 24-24zm0 0" fill="#e10000" data-original="#ed4591" class=""></path>
        <path xmlns="http://www.w3.org/2000/svg" d="m88 0h16c13.253906 0 24 10.746094 24 24v128c0 13.253906-10.746094 24-24 24h-16c-13.253906 0-24-10.746094-24-24v-128c0-13.253906 10.746094-24 24-24zm0 0" fill="#cf2525" data-original="#a76096" class=""></path>
        <path xmlns="http://www.w3.org/2000/svg" d="m110.871094 1.128906c.714844 2.222656 1.09375 4.539063 1.128906 6.871094v128c0 13.253906-10.746094 24-24 24h-16c-2.332031-.035156-4.648438-.414062-6.871094-1.128906 3.007813 10.132812 12.300782 17.09375 22.871094 17.128906h16c13.253906 0 24-10.746094 24-24v-128c-.035156-10.570312-6.996094-19.863281-17.128906-22.871094zm0 0" fill="#b10000" data-original="#7e4870" class=""></path>
        <path xmlns="http://www.w3.org/2000/svg" d="m296 0h16c13.253906 0 24 10.746094 24 24v128c0 13.253906-10.746094 24-24 24h-16c-13.253906 0-24-10.746094-24-24v-128c0-13.253906 10.746094-24 24-24zm0 0" fill="#cf2525" data-original="#a76096" class=""></path>
        <path xmlns="http://www.w3.org/2000/svg" d="m289.128906 1.128906c-.714844 2.222656-1.09375 4.539063-1.128906 6.871094v128c0 13.253906 10.746094 24 24 24h16c2.332031-.035156 4.648438-.414062 6.871094-1.128906-3.007813 10.132812-12.300782 17.09375-22.871094 17.128906h-16c-13.253906 0-24-10.746094-24-24v-128c.035156-10.570312 6.996094-19.863281 17.128906-22.871094zm0 0" fill="#b10000" data-original="#7e4870" class=""></path>
    </g>
</svg>