<svg xmlns="http://www.w3.org/2000/svg" version="1.1"
    xmlns:xlink="http://www.w3.org/1999/xlink"
    xmlns:svgjs="http://svgjs.com/svgjs" width="512" height="512" x="0" y="0" viewBox="0 0 512 512" style="enable-background:new 0 0 512 512" xml:space="preserve" class="">
    <g>
        <circle xmlns="http://www.w3.org/2000/svg" style="" cx="255.996" cy="255.996" r="255.996" fill="#ffdf47" data-original="#ffdf47" class=""></circle>
        <path xmlns="http://www.w3.org/2000/svg" style="" d="M512,256.001c0-26.605-4.061-52.261-11.593-76.384L393.276,72.485  c-11.098-11.097-29.256-11.097-40.353,0L130.438,294.97L84.364,427.636l57.608,57.608C176.31,502.358,215.028,512,256.001,512  C397.385,512,512,397.385,512,256.001z" fill="#fec000" data-original="#fec000"></path>
        <path xmlns="http://www.w3.org/2000/svg" style="" d="M400.804,197.788l-86.592-86.592l38.711-38.711c11.097-11.097,29.256-11.097,40.353,0l46.238,46.238  c11.097,11.097,11.097,29.256,0,40.353L400.804,197.788z" fill="#ff0335" data-original="#ff0335"></path>
        <path xmlns="http://www.w3.org/2000/svg" style="" d="M439.17,159.422c11.287-11.287,11.287-29.756,0-41.043l-22.774-22.774l-58.888,58.888l43.296,43.296  L439.17,159.422z" fill="#c2001b" data-original="#c2001b"></path>
        <rect xmlns="http://www.w3.org/2000/svg" x="288.796" y="145.226" transform="matrix(-0.7071 -0.7071 0.7071 -0.7071 483.0012 524.0056)" style="" width="122.459" height="33.488" fill="#ffffff" data-original="#ffffff"></rect>
        <rect xmlns="http://www.w3.org/2000/svg" x="341.061" y="166.878" transform="matrix(-0.7071 -0.7071 0.7071 -0.7071 504.6495 576.2772)" style="" width="61.23" height="33.488" fill="#c8c6cc" data-original="#c8c6cc"></rect>
        <polygon xmlns="http://www.w3.org/2000/svg" style="" points="297.372,128.037 130.438,294.97 84.364,427.636 217.03,381.562 383.963,214.627 " fill="#e67500" data-original="#e67500"></polygon>
        <polygon xmlns="http://www.w3.org/2000/svg" style="" points="383.963,214.627 340.667,171.333 84.364,427.636 217.03,381.562 " fill="#9a4c00" data-original="#9a4c00"></polygon>
        <polygon xmlns="http://www.w3.org/2000/svg" style="" points="84.364,427.636 217.03,381.562 130.438,294.97 " fill="#ffc473" data-original="#ffc473"></polygon>
        <polygon xmlns="http://www.w3.org/2000/svg" style="" points="173.734,338.266 84.364,427.636 217.03,381.562 " fill="#ffaa20" data-original="#ffaa20"></polygon>
        <polygon xmlns="http://www.w3.org/2000/svg" style="" points="142.558,407.426 104.574,369.442 84.364,427.636 " fill="#57555c" data-original="#57555c"></polygon>
        <polygon xmlns="http://www.w3.org/2000/svg" style="" points="123.566,388.434 84.364,427.636 142.558,407.426 " fill="#171719" data-original="#171719"></polygon>
        <g xmlns="http://www.w3.org/2000/svg">
        </g>
        <g xmlns="http://www.w3.org/2000/svg">
        </g>
        <g xmlns="http://www.w3.org/2000/svg">
        </g>
        <g xmlns="http://www.w3.org/2000/svg">
        </g>
        <g xmlns="http://www.w3.org/2000/svg">
        </g>
        <g xmlns="http://www.w3.org/2000/svg">
        </g>
        <g xmlns="http://www.w3.org/2000/svg">
        </g>
        <g xmlns="http://www.w3.org/2000/svg">
        </g>
        <g xmlns="http://www.w3.org/2000/svg">
        </g>
        <g xmlns="http://www.w3.org/2000/svg">
        </g>
        <g xmlns="http://www.w3.org/2000/svg">
        </g>
        <g xmlns="http://www.w3.org/2000/svg">
        </g>
        <g xmlns="http://www.w3.org/2000/svg">
        </g>
        <g xmlns="http://www.w3.org/2000/svg">
        </g>
        <g xmlns="http://www.w3.org/2000/svg">
        </g>
    </g>
</svg>