<svg xmlns="http://www.w3.org/2000/svg" version="1.1"
    xmlns:xlink="http://www.w3.org/1999/xlink"
    xmlns:svgjs="http://svgjs.com/svgjs" width="512" height="512" x="0" y="0" viewBox="0 0 512 512" style="enable-background:new 0 0 512 512" xml:space="preserve" class="">
    <g>
        <path xmlns="http://www.w3.org/2000/svg" d="m512 256c0 141.386719-114.613281 256-256 256s-256-114.613281-256-256 114.613281-256 256-256 256 114.613281 256 256zm0 0" fill="#ffd400" data-original="#ffd460" class=""></path>
        <path xmlns="http://www.w3.org/2000/svg" d="m336.191406 94.570312-105.625-9.320312-87.328125 88.511719 99.011719 98.136719-11.683594 94.320312 37 36.695312-29.039062 41.125 63.777344 63.773438c114.816406-20.976562 202.886718-118.542969 209.3125-237.816406zm0 0" fill="#ffbe11" data-original="#ffbe11" class=""></path>
        <path xmlns="http://www.w3.org/2000/svg" d="m230.566406 425.566406c0 14.046875 11.386719 25.433594 25.433594 25.433594l8.476562-25.433594-8.476562-25.4375c-14.046875 0-25.433594 11.390625-25.433594 25.4375zm0 0" fill="#5a5a5a" data-original="#8bc0ff" class=""></path>
        <path xmlns="http://www.w3.org/2000/svg" d="m256 400.128906v50.871094c14.046875 0 25.433594-11.386719 25.433594-25.433594s-11.386719-25.4375-25.433594-25.4375zm0 0" fill="#444444" data-original="#3897ff" class=""></path>
        <path xmlns="http://www.w3.org/2000/svg" d="m238.722656 275.167969-8.15625 7.550781v83.5h25.433594l16.957031-53.558594-16.957031-53.558594c-9.738281 9.085938-17.09375 15.894532-17.277344 16.066407zm0 0" fill="#5a5a5a" data-original="#8bc0ff" class=""></path>
        <path xmlns="http://www.w3.org/2000/svg" d="m143.238281 173.761719h50.871094c0-34.128907 27.761719-61.890625 61.890625-61.890625l16.957031-25.4375-16.957031-25.433594c-62.175781 0-112.761719 50.585938-112.761719 112.761719zm0 0" fill="#5a5a5a" data-original="#8bc0ff" class=""></path>
        <path xmlns="http://www.w3.org/2000/svg" d="m256 61v50.871094c34.128906 0 61.890625 27.761718 61.890625 61.890625 0 16.53125-6.4375 32.074219-18.125 43.761719-9.167969 9.167968-29.152344 27.941406-43.765625 41.578124v107.117188h25.433594v-61.289062c14.039062-13.050782 42.28125-39.414063 54.300781-51.433594 21.296875-21.300782 33.027344-49.617188 33.027344-79.734375 0-62.175781-50.585938-112.761719-112.761719-112.761719zm0 0" fill="#444444" data-original="#3897ff" class=""></path>
    </g>
</svg>