<svg xmlns="http://www.w3.org/2000/svg" version="1.1"
    xmlns:xlink="http://www.w3.org/1999/xlink"
    xmlns:svgjs="http://svgjs.com/svgjs" width="512" height="512" x="0" y="0" viewBox="0 0 512 512" style="enable-background:new 0 0 512 512" xml:space="preserve" class="">
    <g>
        <g xmlns="http://www.w3.org/2000/svg">
            <path d="m122.912 391.28h-103.258c-8.284 0-15 6.716-15 15v90.72c0 8.284 6.716 15 15 15h118.259v-105.72c-.001-8.284-6.716-15-15.001-15z" fill="#000000" data-original="#000000" class=""></path>
            <path d="m271.171 307.28h-88.259c-8.284 0-15 6.716-15 15v189.72h118.259v-189.72c0-8.284-6.716-15-15-15z" fill="#000000" data-original="#000000" class=""></path>
            <path d="m477.798 81.01 30.23-32.81c4.04-4.38 5.1-10.73 2.71-16.18-2.39-5.46-7.78-8.98-13.74-8.98h-96.699v-8.04c0-8.28-6.71-15-15-15-8.28 0-15 6.72-15 15v175h-39.13c-8.284 0-15 6.716-15 15v307h120.809c8.29 0 15-6.72 15-15v-292c0-8.28-6.71-15-15-15h-36.679v-53.67h96.699c6.07 0 11.54-3.66 13.86-9.27s1.03-12.07-3.27-16.35z" fill="#000000" data-original="#000000" class=""></path>
        </g>
    </g>
</svg>