<svg xmlns="http://www.w3.org/2000/svg" version="1.1" xmlns:xlink="http://www.w3.org/1999/xlink" xmlns:svgjs="http://svgjs.com/svgjs" width="512" height="512" x="0" y="0" viewBox="0 -32 511.99965 511" style="enable-background:new 0 0 512 512" xml:space="preserve" class=""><g><path xmlns="http://www.w3.org/2000/svg" d="m511.996094 153.195312c-.050782 9.976563-1.109375 20.015626-3.179688 29.992188-3.257812 15.796875-9.035156 31.484375-17.34375 46.667969-21.734375 39.730469-55.445312 71.453125-88.046875 102.136719-5.75 5.398437-11.167969 10.507812-16.566406 15.683593-20.226563 19.425781-40.710937 38.152344-60.515625 56.257813-19.664062 17.984375-40 36.570312-59.953125 55.734375l-10.390625 9.96875-10.386719-9.96875c-19.953125-19.152344-40.289062-37.75-59.953125-55.726563-19.804687-18.113281-40.289062-36.839844-60.515625-56.265625-5.398437-5.175781-10.816406-10.285156-16.566406-15.683593-32.601563-30.683594-66.3125-62.40625-88.046875-102.136719-7.078125-12.933594-12.328125-26.242188-15.734375-39.667969-2.542969-9.957031-4.070313-19.984375-4.589844-29.992188-1.582031-30.054687 5.917969-59.886718 22.453125-86.898437 36.542969-59.664063 87.457032-72.511719 123.738282-72.792969 30.972656-.238281 61.605468 8.660156 88.617187 25.695313l20.984375 13.144531 21.027344-13.164062c26.632812-16.808594 56.835937-25.675782 87.398437-25.675782h1.179688c36.28125.28125 87.195312 13.128906 123.738281 72.792969 15.246094 24.914063 22.8125 52.226563 22.652344 79.898437zm0 0" fill="#ff4949" data-original="#ff3636" class=""></path><path xmlns="http://www.w3.org/2000/svg" d="m511.996094 153.195312c-.050782 9.976563-1.109375 20.015626-3.179688 29.992188h-219.632812l-33.183594 100.777344-21.78125 66.160156-78.613281-217.671875-28.203125 57.734375h-122.605469c-2.542969-9.957031-4.070313-19.984375-4.589844-29.992188h108.460938l51.097656-104.554687 73.140625 202.550781 23.09375-70.144531 11.480469-34.851563zm0 0" fill="#ffd400" data-original="#f0e7df" class=""></path><path xmlns="http://www.w3.org/2000/svg" d="m511.996094 153.195312c-.050782 9.976563-1.109375 20.015626-3.179688 29.992188-3.257812 15.796875-9.035156 31.484375-17.34375 46.667969-21.734375 39.730469-55.445312 71.453125-88.046875 102.136719-5.75 5.398437-11.167969 10.507812-16.566406 15.683593-20.226563 19.425781-40.710937 38.152344-60.515625 56.257813-19.664062 17.984375-40 36.570312-59.953125 55.734375l-10.390625 9.96875v-430.292969l21.027344-13.164062c26.632812-16.808594 56.835937-25.675782 87.398437-25.675782h1.179688c36.28125.28125 87.195312 13.128906 123.738281 72.792969 15.246094 24.914063 22.8125 52.226563 22.652344 79.898437zm0 0" fill="#e80048" data-original="#ea0016" class=""></path><path xmlns="http://www.w3.org/2000/svg" d="m511.996094 153.195312c-.050782 9.976563-1.109375 20.015626-3.179688 29.992188h-219.632812l-33.183594 100.777344v-95.917969l11.480469-34.851563zm0 0" fill="#ff9f04" data-original="#dfcdbd" class=""></path></g></svg>