<svg xmlns="http://www.w3.org/2000/svg" version="1.1"
    xmlns:xlink="http://www.w3.org/1999/xlink"
    xmlns:svgjs="http://svgjs.com/svgjs" width="512" height="512" x="0" y="0" viewBox="0 0 512 512" style="enable-background:new 0 0 512 512" xml:space="preserve" class="">
    <g>
        <g xmlns="http://www.w3.org/2000/svg">
            <path d="m120 7.5h86v497h-86z" fill="#ffd54f" data-original="#ffd54f" class=""></path>
            <path d="m176 7.5h30v497h-30z" fill="#ffc128" data-original="#ffc128" class=""></path>
            <path d="m347 82.377h-227v-30h227c8.284 0 15 6.716 15 15 0 8.284-6.716 15-15 15z" fill="#f1f1f1" data-original="#f1f1f1"></path>
            <path d="m347 52.377h-30c8.284 0 15 6.716 15 15s-6.716 15-15 15h30c8.284 0 15-6.716 15-15s-6.716-15-15-15z" fill="#e2e2e2" data-original="#e2e2e2" class=""></path>
            <path d="m257 363.823c-8.284 0-15-6.716-15-15v-111.014c0-13.255 10.745-24 24-24h6v135.014c0 8.284-6.716 15-15 15z" fill="#fdc19a" data-original="#fdc19a" class=""></path>
            <path d="m377 363.823c8.284 0 15-6.716 15-15v-111.014c0-13.255-10.745-24-24-24h-6v135.014c0 8.284 6.716 15 15 15z" fill="#fdc19a" data-original="#fdc19a" class=""></path>
            <path d="m272 213.809h90v112.191h-90z" fill="#f68d36" transform="matrix(-1 0 0 -1 634 539.809)" data-original="#f68d36" class=""></path>
            <path d="m332 213.809h30v112.191h-30z" fill="#f66f1c" data-original="#f66f1c" class=""></path>
            <path d="m272 326v165.5h30v-120.5c0-8.284 6.716-15 15-15 8.284 0 15 6.716 15 15v120.5h30v-165.5z" fill="#00ae2a" data-original="#2accf4" class=""></path>
            <path d="m317 233.809c8.284 0 15-6.716 15-15v-35h-30v35c0 8.284 6.716 15 15 15z" fill="#fdaa8e" data-original="#fdaa8e" class=""></path>
            <path d="m317 198.809c16.569 0 30-13.431 30-30v-16c0-16.569-13.431-30-30-30-16.569 0-30 13.431-30 30v16c0 16.569 13.431 30 30 30z" fill="#fdc19a" data-original="#fdc19a" class=""></path>
            <path d="m332 504.5h30v-17c0-8.284-6.716-15-15-15-8.284 0-15 6.716-15 15z" fill="#be652b" data-original="#be652b" class=""></path>
            <path d="m272 504.5h30v-17c0-8.284-6.716-15-15-15-8.284 0-15 6.716-15 15z" fill="#be652b" data-original="#be652b" class=""></path>
            <path d="m349.983 152.809h-65.967c-4.98 0-9.017-4.037-9.017-9.017v-5.022c0-15.443 12.519-27.962 27.962-27.962h28.076c15.443 0 27.962 12.519 27.962 27.962v5.022c.001 4.98-4.036 9.017-9.016 9.017z" fill="#cf7c38" data-original="#cf7c38"></path>
            <path d="m331.038 110.809h-28.076c-.323 0-.642.013-.962.024 14.997.508 27 12.817 27 27.937v5.022c0 4.98-4.037 9.017-9.017 9.017h30c4.98 0 9.017-4.037 9.017-9.017v-5.022c0-15.442-12.519-27.961-27.962-27.961z" fill="#be652b" data-original="#be652b" class=""></path>
            <g>
                <path d="m347 89.877c12.406 0 22.5-10.093 22.5-22.5s-10.094-22.5-22.5-22.5h-26c-4.143 0-7.5 3.358-7.5 7.5s3.357 7.5 7.5 7.5h26c4.136 0 7.5 3.364 7.5 7.5s-3.364 7.5-7.5 7.5h-219.5v-15h78.442c.02 0 .039.003.058.003s.039-.003.058-.003h80.942c4.143 0 7.5-3.358 7.5-7.5s-3.357-7.5-7.5-7.5h-73.5v-37.377c0-4.142-3.357-7.5-7.5-7.5h-86c-4.143 0-7.5 3.358-7.5 7.5v120.269c0 4.142 3.357 7.5 7.5 7.5s7.5-3.358 7.5-7.5v-37.892h71v28.623h-35.5c-4.143 0-7.5 3.358-7.5 7.5s3.357 7.5 7.5 7.5h35.5v25h-22.5c-4.143 0-7.5 3.358-7.5 7.5s3.357 7.5 7.5 7.5h22.5v25h-35.5c-4.143 0-7.5 3.358-7.5 7.5s3.357 7.5 7.5 7.5h35.5v25h-22.5c-4.143 0-7.5 3.358-7.5 7.5s3.357 7.5 7.5 7.5h22.5v25h-35.5c-4.143 0-7.5 3.358-7.5 7.5s3.357 7.5 7.5 7.5h35.5v25h-22.5c-4.143 0-7.5 3.358-7.5 7.5s3.357 7.5 7.5 7.5h22.5v25h-35.5c-4.143 0-7.5 3.358-7.5 7.5s3.357 7.5 7.5 7.5h35.5v25h-22.5c-4.143 0-7.5 3.358-7.5 7.5s3.357 7.5 7.5 7.5h22.5v25h-35.5c-4.143 0-7.5 3.358-7.5 7.5s3.357 7.5 7.5 7.5h35.5v43.5h-71v-337.026c0-4.142-3.357-7.5-7.5-7.5s-7.5 3.358-7.5 7.5v344.526c0 4.142 3.357 7.5 7.5 7.5h86c4.143 0 7.5-3.358 7.5-7.5v-414.623zm-148.5-74.877v29.877h-71v-29.877z" fill="#000000" data-original="#000000" class=""></path>
                <path d="m368 206.309h-6c-.007 0-.013.001-.019.001h-22.481v-7.52c9.102-6.849 15-17.737 15-29.98v-9.144c6.916-1.971 12-8.333 12-15.873v-5.021c0-19.554-15.908-35.462-35.462-35.462h-28.076c-19.554 0-35.462 15.908-35.462 35.462v5.021c0 7.54 5.084 13.902 12 15.873v9.144c0 12.242 5.898 23.131 15 29.98v7.52h-22.481c-.007 0-.013-.001-.019-.001h-6c-17.369 0-31.5 14.131-31.5 31.5v111.014c0 12.407 10.094 22.5 22.5 22.5 2.629 0 5.153-.458 7.5-1.29v134.467c0 4.142 3.357 7.5 7.5 7.5h30c4.143 0 7.5-3.358 7.5-7.5v-133.5c0-4.136 3.364-7.5 7.5-7.5 2 0 3.877.779 5.307 2.214 1.414 1.409 2.193 3.286 2.193 5.286v133.5c0 4.142 3.357 7.5 7.5 7.5h30c4.143 0 7.5-3.358 7.5-7.5v-56.731c0-4.142-3.357-7.5-7.5-7.5s-7.5 3.358-7.5 7.5v18.521c-2.347-.833-4.871-1.29-7.5-1.29s-5.153.458-7.5 1.29v-95.29c0-6.018-2.347-11.67-6.588-15.894-4.244-4.26-9.896-6.606-15.912-6.606-12.406 0-22.5 10.093-22.5 22.5v95.29c-2.347-.833-4.871-1.29-7.5-1.29s-5.153.458-7.5 1.29v-132.79h75v82.269c0 4.142 3.357 7.5 7.5 7.5s7.5-3.358 7.5-7.5v-45.736c2.347.833 4.871 1.29 7.5 1.29 12.406 0 22.5-10.093 22.5-22.5v-111.014c0-17.369-14.131-31.5-31.5-31.5zm-21 273.691c4.136 0 7.5 3.364 7.5 7.5v9.5h-15v-9.5c0-4.136 3.364-7.5 7.5-7.5zm-30-288.69c-12.406 0-22.5-10.093-22.5-22.5v-8.501h45v8.501c0 12.407-10.094 22.5-22.5 22.5zm-34.5-52.539c0-11.283 9.179-20.462 20.462-20.462h28.076c11.283 0 20.462 9.179 20.462 20.462v5.021c0 .836-.681 1.517-1.517 1.517h-65.967c-.836 0-1.517-.68-1.517-1.517v-5.021zm34.5 67.539c2.568 0 5.076-.261 7.5-.755v13.255c0 4.136-3.364 7.5-7.5 7.5s-7.5-3.364-7.5-7.5v-13.255c2.424.494 4.932.755 7.5.755zm-60 150.013c-4.136 0-7.5-3.364-7.5-7.5v-111.014c0-8.593 6.602-15.672 15-16.433v127.446c0 4.136-3.364 7.501-7.5 7.501zm30 123.677c4.136 0 7.5 3.364 7.5 7.5v9.5h-15v-9.5c0-4.136 3.364-7.5 7.5-7.5zm-7.5-161.5v-97.19h15.142c1.248 11.234 10.797 20 22.358 20s21.11-8.766 22.358-20h15.142v97.19zm105 30.323c0 4.136-3.364 7.5-7.5 7.5s-7.5-3.364-7.5-7.5v-127.447c8.398.76 15 7.84 15 16.433z" fill="#000000" data-original="#000000" class=""></path>
            </g>
        </g>
    </g>
</svg>