<svg xmlns="http://www.w3.org/2000/svg" version="1.1"
    xmlns:xlink="http://www.w3.org/1999/xlink"
    xmlns:svgjs="http://svgjs.com/svgjs" width="512" height="512" x="0" y="0" viewBox="0 0 58 58" style="enable-background:new 0 0 512 512" xml:space="preserve" class="">
    <g>
        <g xmlns="http://www.w3.org/2000/svg" id="Page-1" fill="none" fill-rule="evenodd">
            <g id="053---Calorie-Target" fill-rule="nonzero">
                <path id="Shape" d="m16.53 35.94-3.25 6.51c-.1710655.3395038-.5198431.5526457-.9.55h-5.76c-.3483719.002433-.67290102-.1766148-.8566239-.4726128-.18372288-.2959979-.20015578-.6662778-.0433761-.9773872l3.83-7.65z" fill="#a56a43" data-original="#a56a43" class=""></path>
                <path id="Shape" d="m22.4 41.8-2.93-5.86 6.98-2.05v.01l3.55 7.1z" fill="#a56a43" data-original="#a56a43" class=""></path>
                <circle id="Oval" cx="18" cy="18" fill="#e64c3c" r="18" data-original="#e64c3c" class=""></circle>
                <path id="Shape" d="m52.28 11.45-2.28 4.55-6 1-5-1 2.72-5.45c.1710655-.3395038.5198431-.55264567.9-.55h8.76c.3483719-.002433.672901.1766148.8566239.4726128.1837229.2959979.2001558.6662778.0433761.9773872z" fill="#f3d55b" data-original="#f3d55b" class=""></path>
                <path id="Shape" d="m51.38 26h-8.76c-.3801569.0026457-.7289345-.2104962-.9-.55l-2.72-5.45 5-1 6 1 2.28 4.55c.1567797.3111094.1403468.6813893-.0433761.9773872-.1837229.295998-.508252.4750458-.8566239.4726128z" fill="#f3d55b" data-original="#f3d55b" class=""></path>
                <path id="Shape" d="m58 43v13c-.0032948 1.1032019-.8967981 1.9967052-2 2h-32c-1.1032019-.0032948-1.9967052-.8967981-2-2v-13c-.0038593-.4302949.1370164-.8494002.4-1.19v-.01c.3804557-.5003091.9714793-.7958209 1.6-.8h32c1.1032019.0032948 1.9967052.8967981 2 2z" fill="#ff5364" data-original="#ff5364" class=""></path>
                <path id="Shape" d="m27.8 20h4.06c-1.0489953 7.2676528-7.5348661 12.4899032-14.8589805 11.9640555-7.32411445-.5258478-12.99742596-6.6210883-12.99742596-13.9640555s5.67331151-13.43820772 12.99742596-13.96405547c7.3241144-.52584776 13.8099852 4.69640271 14.8589805 11.96405547h-4.06c-1.0267294-5.0299264-5.6953974-8.46533908-10.8030486-7.94936153s-8.99491037 4.81571433-8.99491037 9.94936153 3.88725917 9.433384 8.99491037 9.9493615c5.1076512.5159776 9.7763192-2.9194351 10.8030486-7.9493615z" fill="#ffffff" data-original="#ffffff" class=""></path>
                <path id="Shape" d="m18 20h5.65c-.9740726 2.7550934-3.7913325 4.4077442-6.6714661 3.9135914-2.8801337-.4941529-4.9853881-2.9913736-4.9853881-5.9135914s2.1052544-5.4194385 4.9853881-5.9135914c2.8801336-.4941528 5.6973935 1.158498 6.6714661 3.9135914h-5.65c-1.1045695 0-2 .8954305-2 2s.8954305 2 2 2z" fill="#ffffff" data-original="#ffffff" class=""></path>
                <path id="Shape" d="m55 18c-.0032948 1.1032019-.8967981 1.9967052-2 2h-35c-1.1045695 0-2-.8954305-2-2s.8954305-2 2-2h35c1.1032019.0032948 1.9967052.8967981 2 2z" fill="#a56a43" data-original="#a56a43" class=""></path>
                <g fill="#fff">
                    <path id="Shape" d="m30.3 46c.7517301-.0022179 1.4788552.2677455 2.047.76.4197364.3589851 1.0510149.3097364 1.41-.11s.3097364-1.0510149-.11-1.41c-.932273-.798943-2.119221-1.2386848-3.347-1.24-3.0375661 0-5.5 2.4624339-5.5 5.5s2.4624339 5.5 5.5 5.5c1.227779-.0013152 2.414727-.441057 3.347-1.24.4197364-.3589851.4689851-.9902636.11-1.41s-.9902636-.4689851-1.41-.11c-.5681448.4922545-1.2952699.7622179-2.047.76-1.8534961-.1085761-3.3009732-1.6433265-3.3009732-3.5s1.4474771-3.3914239 3.3009732-3.5z" fill="#ffffff" data-original="#ffffff" class=""></path>
                    <path id="Shape" d="m43.594 50.625-.013-.03-2.667-6c-.160402-.3613564-.5186429-.5942858-.914-.5942858s-.753598.2329294-.914.5942858l-2.667 6-.013.03-1.32 2.969c-.2242276.5047883.0032118 1.0957724.508 1.32.5047883.2242276 1.0957724-.0032118 1.32-.508l1.069-2.406h4.034l1.069 2.406c.1450498.3265408.4532888.5508937.8086063.5885473.3553175.0376535.7037324-.1171128.914-.4060001.2102677-.2888872.2504435-.6680064.1053937-.9945472zm-4.722-.625 1.128-2.538 1.128 2.538z" fill="#ffffff" data-original="#ffffff" class=""></path>
                    <path id="Shape" d="m54 53h-5v-8c0-.5522847-.4477153-1-1-1s-1 .4477153-1 1v9c0 .5522847.4477153 1 1 1h6c.5522847 0 1-.4477153 1-1s-.4477153-1-1-1z" fill="#ffffff" data-original="#ffffff" class=""></path>
                </g>
            </g>
        </g>
    </g>
</svg>