<svg xmlns="http://www.w3.org/2000/svg" version="1.1"
    xmlns:xlink="http://www.w3.org/1999/xlink"
    xmlns:svgjs="http://svgjs.com/svgjs" width="512" height="512" x="0" y="0" viewBox="0 0 60 60" style="enable-background:new 0 0 512 512" xml:space="preserve" class="">
    <g>
        <g xmlns="http://www.w3.org/2000/svg" id="Page-1" fill="none" fill-rule="evenodd">
            <g id="028---Calorie-Counting" fill-rule="nonzero">
                <circle id="Oval" cx="30" cy="30" fill="#fed843" r="29" data-original="#02a9f4" class=""></circle>
                <path id="Shape" d="m30 1c-.5033333 0-1.0033333.01266667-1.5.038 15.4192225.79012792 27.5158989 13.5225465 27.5158989 28.962s-12.0966764 28.1718721-27.5158989 28.962c.4973333.0253333.9973333.038 1.5.038 16.0162576-.0000002 28.9999996-12.9837424 28.9999996-29s-12.983742-28.99999976-28.9999996-29z" fill="#fbaf00" data-original="#0377bc" class=""></path>
                <circle id="Oval" cx="30" cy="30" fill="#fbaf00" r="19" data-original="#0377bc" class=""></circle>
                <circle id="Oval" cx="43" cy="43" fill="#60a917" r="16" data-original="#60a917"></circle>
                <path id="Shape" d="m43 27c-.506 0-1.006.03-1.5.076 8.2180365.7714055 14.4992559 7.669838 14.4992559 15.924s-6.2812194 15.1525945-14.4992559 15.924c.494.046.994.076 1.5.076 8.836556 0 16-7.163444 16-16s-7.163444-16-16-16z" fill="#549414" data-original="#549414"></path>
                <path id="Shape" d="m14 12v11c.0014703 1.8238506-1.233358 3.416779-3 3.87-.3257307.0893041-.6622628.1330533-1 .13h-4c-.33773721.0030533-.67426925-.0406959-1-.13-1.76664204-.453221-3.00147026-2.0461494-3-3.87v-11c-.00090913-.5819653.25528603-1.1346149.7-1.51.78709163-.69010995 1.97591029-.6462421 2.71.1.3798589.3704612.59282307.8794095.59 1.41.00275976-1.0260606.77935991-1.8846352 1.8-1.99.13299832-.01336683.26700168-.01336683.4 0 .4585925.0464431.88656633.2515876 1.21.58.3798589.3704612.5928231.8794095.59 1.41.0032948-1.1032019.8967981-1.9967052 2-2 .478964-.00274728.9420134.1717867 1.3.49.039097.0305579.0758652.0639836.11.1.3798589.3704612.5928231.8794095.59 1.41z" fill="#9e9e9e" data-original="#9e9e9e" class=""></path>
                <path id="Shape" d="m13.41 10.59c-.0341348-.0360164-.070903-.0694421-.11-.1-.3579866-.3182133-.821036-.49274728-1.3-.49-.578046.0039135-1.125701.2594859-1.5.7.3210205.3570046.4990534.81989.5 1.3v11c.0014703 1.8238506-1.23335796 3.416779-3 3.87-.32573075.0893041-.66226279.1330533-1 .1301494l3-.0001494c.3377372.0030533.6742693-.0406959 1-.13 1.766642-.453221 3.0014703-2.0461494 3-3.87v-11c.0028231-.5305905-.2101411-1.0395388-.59-1.41z" fill="#707070" data-original="#707070" class=""></path>
                <path id="Shape" d="m7 12c.00320646-.911683.62255815-1.7058185 1.506-1.931-.10034908-.0274288-.20264662-.0471528-.306-.059-.13299832-.01336683-.26700168-.01336683-.4 0-.50397134.0540683-.96861564.2974705-1.3.681.32309639.3593115.50127666.8257874.5 1.309z" fill="#707070" data-original="#707070" class=""></path>
                <path id="Shape" d="m3 12c.0029536-.9095785.61929853-1.702609 1.5-1.93-.16299678-.0445738-.33102913-.0680983-.5-.07-.58032483-.00641101-1.13215016.2511075-1.5.7.32134775.356804.4994307.8198197.5 1.3z" fill="#707070" data-original="#707070" class=""></path>
                <path id="Shape" d="m11 26.87v24.13c0 1.6568542-1.34314575 3-3 3s-3-1.3431458-3-3v-24.13c.32573075.0893041.66226279.1330533 1 .13h4c.3377372.0030533.6742693-.0406959 1-.13z" fill="#ef314c" data-original="#ef314c" class=""></path>
                <path id="Shape" d="m6 27c-.33773721.0030533-.67426925-.0406959-1-.13v.13z" fill="#bb193b" data-original="#bb193b" class=""></path>
                <path id="Shape" d="m10 27h-2v24c.00007021.7955351-.31657725 1.5583676-.88 2.12-.18691994.1807308-.39630348.3366761-.623.464.92561766.5408627 2.06982323.5453555 2.99965978.0117784.92983652-.5335771 1.50327832-1.5237241 1.50334022-2.5957784v-24.13c-.3257307.0893041-.6622628.1330533-1 .13z" fill="#bb193b" data-original="#bb193b" class=""></path>
                <path id="Shape" d="m23 32v19c0 1.6568542-1.3431458 3-3 3s-3-1.3431458-3-3v-19z" fill="#3f51b5" data-original="#3f51b5" class=""></path>
                <path id="Shape" d="m20 32v19c-.0017261 1.0676546-.5737353 2.0530357-1.5 2.584.4539503.2699637.9718471.4135937 1.5.416 1.6568542 0 3-1.3431458 3-3v-19z" fill="#283593" data-original="#283593"></path>
                <path id="Shape" d="m23 11v18.99c0 .6733333-.03 1.3433333-.09 2.01h-5.91v-7c0-13.43 2.24-15 5-15 .5522847 0 1 .4477153 1 1z" fill="#9e9e9e" data-original="#9e9e9e" class=""></path>
                <path id="Shape" d="m22 10c-.7453765-.03779804-1.4837966.1594871-2.111.564.0703457.1347455.1083491.2840203.111.436v18.99c0 .6733333-.03 1.3433333-.09 2.01h3c.06-.67.09-1.34.09-2.01v-18.99c0-.5522847-.4477153-1-1-1z" fill="#707070" data-original="#707070" class=""></path>
                <g fill="#f5f5f5">
                    <path id="Shape" d="m34.781 38.375c-.1657145-.2072013-.4069781-.3400545-.670678-.3693128-.2636998-.0292583-.5282179.0474769-.735322.2133128l-3.375 2.7v-1.919c0-.5522847-.4477153-1-1-1s-1 .4477153-1 1v8c0 .5522847.4477153 1 1 1s1-.4477153 1-1v-1.919l3.375 2.7c.2790244.223291.655978.2807626.9888658.1507659.3328879-.1299968.5711366-.4277123.625-.781.0538635-.3532878-.0848414-.7084749-.3638658-.9317659l-4.025-3.219 4.024-3.219c.2073518-.1655696.3403985-.406761.369845-.6704672.0294466-.2637061-.0471215-.528304-.212845-.7355328z" fill="#f5f5f5" data-original="#f5f5f5"></path>
                    <path id="Shape" d="m39 40h1c.5522847 0 1 .4477153 1 1s.4477153 1 1 1 1-.4477153 1-1c0-1.6568542-1.3431458-3-3-3h-1c-1.6568542 0-3 1.3431458-3 3v4c0 1.6568542 1.3431458 3 3 3h1c1.6568542 0 3-1.3431458 3-3 0-.5522847-.4477153-1-1-1s-1 .4477153-1 1-.4477153 1-1 1h-1c-.5522847 0-1-.4477153-1-1v-4c0-.5522847.4477153-1 1-1z" fill="#f5f5f5" data-original="#f5f5f5"></path>
                    <path id="Shape" d="m51.94 46.65-3-8c-.1435417-.3954845-.5192718-.6588256-.94-.6588256s-.7964583.2633411-.94.6588256l-3 8c-.125043.3358297-.0614245.7128587.1668911.9890639.2283155.2762052.5866415.4096245.94.35.3533585-.0596244.648066-.3032342.7731089-.6390639l.5-1.35h3.12l.5 1.35c.1493028.3897866.5226026.6479194.94.65.1192605.0004136.2376868-.019888.35-.06.5175475-.195017.780954-.7709397.59-1.29zm-4.75-2.65.81-2.15.81 2.15z" fill="#f5f5f5" data-original="#f5f5f5"></path>
                    <path id="Shape" d="m59 46h-4v-7c0-.5522847-.4477153-1-1-1s-1 .4477153-1 1v8c0 .5522847.4477153 1 1 1h5c.5522847 0 1-.4477153 1-1s-.4477153-1-1-1z" fill="#f5f5f5" data-original="#f5f5f5"></path>
                </g>
                <path id="Shape" d="m47.271 24.287c.2074862.505671.7825371.7510649 1.2911876.5509939.5086504-.200071.7624254-.7714728.5698124-1.2829939-3.846-9.789-13.4-15.183-23.252-13.126-.5406868.1132184-.8872184.6433132-.774 1.184s.6433132.8872184 1.184.774c7.257-1.519 16.917 1.557 20.981 11.9z" fill="#000000" data-original="#000000" class=""></path>
                <path id="Shape" d="m16 25v26c0 2.209139 1.790861 4 4 4s4-1.790861 4-4v-40c0-1.1045695-.8954305-2-2-2-4.43 0-6 4.187-6 16zm2 0c0-13.992 2.478-14 4-14v18.99c0 .333-.029.673-.045 1.01h-3.955zm4 26c0 1.1045695-.8954305 2-2 2s-2-.8954305-2-2v-18h4z" fill="#000000" data-original="#000000" class=""></path>
                <path id="Shape" d="m30 0c-8.0874277-.02974379-15.836926 3.24131956-21.457 9.057-.062-.011-.122-.028-.184-.035-.21851735-.02977677-.43989944-.03212832-.659-.007-.63427711.06138641-1.23235276.32381094-1.707.749-1.12885886-.964266-2.78629441-.98153534-3.935-.041-.67350341.5640734-1.06121335 1.3984926-1.058 2.277v10.212c-.65458244 2.5445674-.99048851 5.1606038-1 7.788-.01895692 4.6116501 1.04274394 9.1636069 3.1 13.291.286.583.583 1.128.9 1.664v6.045c.0011531 1.6169625.97570796 3.0741968 2.46965154 3.6928256 1.49394357.6186287 3.21340684.2769633 4.35734846-.8658256.1395313-.1460862.2682069-.3021681.385-.467 7.3492081 5.9418569 17.0765774 8.0557768 26.229 5.7 7.6998136 2.6803294 16.217494-.4941179 20.285-7.56.2293049-.4714111.055647-1.0398857-.3979449-1.3026851-.4535919-.2627995-1.0331376-.1307117-1.3280551.3026851-2.6811195 4.6417735-7.6345463 7.5010008-12.995 7.5010008s-10.3138805-2.8592273-12.995-7.5010008c-.2843876-.4596821-.882589-.61017-1.3506397-.3397768s-.6365131.8637835-.3803603 1.3397768c1.4757571 2.5392332 3.582051 4.6544827 6.115 6.141-1.453022.2344128-2.9221979.3544479-4.394.359-6.6080092.0050228-13.0020101-2.3424338-18.037-6.622.012-.126.037-.25.037-.378v-23.422c1.8232449-.7914578 3.0020947-2.5903825 3-4.578v-11c.0055929-.7963415-.3132016-1.560654-.883-2.117-.0473825-.05114089-.0988894-.09829973-.154-.141-.6910992-.60981245-1.6264172-.86368977-2.531-.687 5.1030409-4.56838096 11.7188835-7.08210184 18.568-7.055 15.45963.0104798 27.9895202 12.54037 28 28-.0000509 1.4642888-.1167533 2.9262465-.349 4.372-3.0704039-5.2105581-8.6771085-8.3983875-14.7249686-8.372242-6.0478602.0261456-11.6267931 3.2623317-14.6520314 8.499242-.2561528.4759933-.0876904 1.0693836.3803603 1.3397768s1.0662521.1199053 1.3506397-.3397768c2.6812501-4.6412857 7.6344035-7.5001352 12.9945-7.5001352s10.3132499 2.8588495 12.9945 7.5001352c.4230386.7382873.7836272 1.5106426 1.078 2.309.1455509.392107.5197502.6522114.938.652h.046c.4345369-.019725.8064815-.3180893.92-.738 2.5762881-9.5844282.2245371-19.8225639-6.276-27.322-5.6934759-6.6038129-13.9807103-10.40060753-22.7-10.4zm-28 30c.00145727-1.2420219.08363044-2.4826363.246-3.714.48031022.5573237 1.0797516.999557 1.754 1.294v12.81c-1.32957125-3.3022122-2.00868036-6.830184-2-10.39zm6 23c-1.1045695 0-2-.8954305-2-2v-23h4v23c0 1.1045695-.8954305 2-2 2zm4.637-41.762c.0241531.0239521.0495198.0466487.076.068.1854514.1830903.2889672.4334037.287.694v11c.0007384 1.3756601-.9360523 2.5748017-2.271 2.907-.2374602.0649138-.482848.0962184-.729.093h-4c-.24036797.002198-.47991152-.0284178-.712-.091-.014 0-.028 0-.042-.008-1.32429528-.3391209-2.2493724-1.5339778-2.246-2.901v-11c.00262566-.2951218.13548265-.5740117.363-.762.17584189-.1549664.40262408-.2396982.637-.238.26974058-.0009102.52783021.1098548.713.306.18545144.1830903.2889672.4334037.287.694v8c0 .5522847.44771525 1 1 1s1-.4477153 1-1v-8c.00770083-.5221272.40885164-.9539365.929-1h.165c.23531699.023656.45463393.1299486.619.3.18695709.1845429.29059938.437329.287.7v8c0 .5522847.44771525 1 1 1 .5522847 0 1-.4477153 1-1v-8c0-.5522847.4477153-1 1-1 .2343759-.0016982.4611581.0830336.637.238z" fill="#000000" data-original="#000000" class=""></path>
            </g>
        </g>
    </g>
</svg>