<svg xmlns="http://www.w3.org/2000/svg" version="1.1"
    xmlns:xlink="http://www.w3.org/1999/xlink"
    xmlns:svgjs="http://svgjs.com/svgjs" width="512" height="512" x="0" y="0" viewBox="0 0 512 512" style="enable-background:new 0 0 512 512" xml:space="preserve" class="">
    <g>
        <path xmlns="http://www.w3.org/2000/svg" d="m512 256c0 141.386719-114.613281 256-256 256s-256-114.613281-256-256 114.613281-256 256-256 256 114.613281 256 256zm0 0" fill="#ff3b32" data-original="#ff328e" class=""></path>
        <path xmlns="http://www.w3.org/2000/svg" d="m512 256c0-14.269531-1.1875-28.261719-3.433594-41.898438l-62.125-62.125c-19.035156 0-34.464844 15.429688-34.464844 34.464844v25.265625l-52.691406-52.660156c-25.84375-27.519531-62.554687-44.714844-103.285156-44.714844-49.675781 0-93.371094 25.574219-118.660156 64.269531l-29.980469-26.625h-11.722656v10.648438l-10.667969-10.648438h-11.933594v10.632813l-10.671875-10.632813h-11.722656v50.820313c0 10.511719 5.804687 19.714844 14.355469 24.613281.953125 1.667969 2.074218 3.222656 3.335937 4.660156v117.285157c0 3.332031 1.527344 6.308593 3.921875 8.261719l152.460938 152.476562c10.253906 1.25 20.691406 1.90625 31.285156 1.90625 141.386719 0 256-114.613281 256-256zm0 0" fill="#c50a0a" data-original="#c50a5b" class=""></path>
        <path xmlns="http://www.w3.org/2000/svg" d="m397.667969 256c0 78.242188-63.425781 141.667969-141.667969 141.667969s-141.667969-63.425781-141.667969-141.667969 63.425781-141.667969 141.667969-141.667969 141.667969 63.425781 141.667969 141.667969zm0 0" fill="#ffffff" data-original="#ffffff" class=""></path>
        <path xmlns="http://www.w3.org/2000/svg" d="m397.671875 256c0 78.238281-63.433594 141.671875-141.671875 141.671875v-283.34375c78.238281 0 141.671875 63.433594 141.671875 141.671875zm0 0" fill="#fff5cb" data-original="#fff5cb" class=""></path>
        <path xmlns="http://www.w3.org/2000/svg" d="m343.804688 256c0 48.492188-39.3125 87.804688-87.804688 87.804688s-87.804688-39.3125-87.804688-87.804688 39.3125-87.804688 87.804688-87.804688 87.804688 39.3125 87.804688 87.804688zm0 0" fill="#fff5cb" data-original="#fff5cb" class=""></path>
        <path xmlns="http://www.w3.org/2000/svg" d="m343.800781 256c0 48.488281-39.3125 87.800781-87.800781 87.800781v-175.601562c48.488281 0 87.800781 39.3125 87.800781 87.800781zm0 0" fill="#ffe670" data-original="#ffe670"></path>
        <path xmlns="http://www.w3.org/2000/svg" d="m95.636719 151.976562v40.601563c0 2.78125-2.019531 5.28125-4.785157 5.558594-3.175781.324219-5.882812-2.191407-5.882812-5.304688v-40.855469h-11.933594v40.601563c0 2.785156-2.019531 5.28125-4.789062 5.5625-3.175782.320313-5.882813-2.195313-5.882813-5.308594v-40.855469h-11.722656v50.824219c0 11.828125 7.34375 22.019531 17.691406 26.257813v120.296875c0 5.894531 4.777344 10.671875 10.667969 10.671875 5.894531 0 10.671875-4.777344 10.671875-10.671875v-120.300781c10.347656-4.238282 17.6875-14.429688 17.6875-26.257813v-50.820313zm0 0" fill="#ffffff" data-original="#ffffff" class=""></path>
        <path xmlns="http://www.w3.org/2000/svg" d="m446.441406 151.976562c-19.035156 0-34.464844 15.429688-34.464844 34.464844v84.195313h13.019532v78.71875c0 5.890625 4.777344 10.667969 10.671875 10.667969h.101562c5.894531 0 10.671875-4.777344 10.671875-10.667969zm0 0" fill="#fff5cb" data-original="#fff5cb" class=""></path>
        <g>
            <path d="m45 297h422c16.569 0 30 13.431 30 30v140c0 16.569-13.431 30-30 30h-422c-16.569 0-30-13.431-30-30v-140c0-16.569 13.431-30 30-30z" fill="#ffe278" data-original="#ffe278" class=""></path>
            <path d="m467 297h-211v200h211c16.569 0 30-13.431 30-30v-140c0-16.569-13.431-30-30-30z" fill="#ffcd00" data-original="#ffcd00" class=""></path>
            <g>
                <path d="m467 512h-422c-24.813 0-45-20.187-45-45v-140c0-24.813 20.187-45 45-45h422c24.813 0 45 20.187 45 45v140c0 24.813-20.187 45-45 45zm-422-200c-8.271 0-15 6.729-15 15v140c0 8.271 6.729 15 15 15h422c8.271 0 15-6.729 15-15v-140c0-8.271-6.729-15-15-15z" fill="#fff48b" data-original="#fff48b" class=""></path>
            </g>
            <path d="m467 282h-211v30h211c8.271 0 15 6.729 15 15v140c0 8.271-6.729 15-15 15h-211v30h211c24.813 0 45-20.187 45-45v-140c0-24.814-20.187-45-45-45z" fill="#ffe278" data-original="#ffe278" class=""></path>
            <g>
                <g>
                    <path d="m333.213 343.991c-.044-.116-.09-.231-.137-.346-2.288-5.558-7.646-9.146-13.655-9.146-.006 0-.014 0-.02 0-6.016.008-11.374 3.611-13.649 9.18-.038.093-.074.186-.11.279l-37.549 98.592c-2.457 6.452.781 13.674 7.232 16.131 6.451 2.456 13.674-.781 16.131-7.232l6.285-16.504h43.074l6.215 16.468c1.89 5.006 6.646 8.091 11.697 8.09 1.467 0 2.958-.26 4.411-.808 6.459-2.438 9.72-9.649 7.282-16.108zm-25.951 65.954 12.115-31.81 12.004 31.81z" fill="#525263" data-original="#525263"></path>
                    <path d="m436.002 434.416c-.024 0-.048 0-.071 0-7.707.043-15.963.074-22.447.083v-87.499c0-6.903-5.597-12.5-12.5-12.5s-12.5 5.597-12.5 12.5v99.916c0 6.088 4.387 11.291 10.387 12.32.891.152 1.575.271 12.721.271 5.353 0 13.119-.027 24.479-.091 6.904-.039 12.469-5.666 12.431-12.57-.041-6.879-5.629-12.43-12.5-12.43z" fill="#525263" data-original="#525263"></path>
                    <g fill="#5e6b75">
                        <path d="m250.709 423.306c-5.291-4.437-13.175-3.742-17.609 1.549-.873 1.041-1.812 2.01-2.792 2.883-5.038 4.487-11.474 6.763-19.128 6.763-20.677 0-37.499-16.822-37.499-37.5s16.822-37.5 37.499-37.5c7.517 0 14.764 2.212 20.957 6.396 5.721 3.864 13.491 2.36 17.355-3.359 3.865-5.72 2.361-13.49-3.359-17.355-10.342-6.988-22.429-10.682-34.953-10.682-34.462 0-62.499 28.037-62.499 62.5s28.037 62.5 62.499 62.5c13.773 0 26.138-4.527 35.753-13.091 1.883-1.677 3.675-3.524 5.325-5.494 4.435-5.291 3.742-13.175-1.549-17.61z" fill="#5e6b75" data-original="#5e6b75"></path>
                        <path d="m97.432 394.985 40.82-37.521c5.083-4.672 5.416-12.58.744-17.662-4.672-5.084-12.58-5.415-17.662-.744l-32.834 30.181v-22.239c0-6.903-5.597-12.5-12.5-12.5s-12.5 5.597-12.5 12.5v100c0 6.903 5.597 12.5 12.5 12.5s12.5-5.597 12.5-12.5v-25.893l36.164 34.889c2.426 2.34 5.553 3.504 8.678 3.504 3.273 0 6.544-1.278 8.997-3.821 4.793-4.968 4.651-12.882-.317-17.675z" fill="#5e6b75" data-original="#5e6b75"></path>
                    </g>
                </g>
            </g>
        </g>
    </g>
</svg>