<svg xmlns="http://www.w3.org/2000/svg" version="1.1"
    xmlns:xlink="http://www.w3.org/1999/xlink"
    xmlns:svgjs="http://svgjs.com/svgjs" width="512" height="512" x="0" y="0" viewBox="0 0 16.933333 16.933333" style="enable-background:new 0 0 512 512" xml:space="preserve" class="">
    <g>
        <g xmlns="http://www.w3.org/2000/svg" id="layer2">
            <path id="path4213" d="m5.3816311 10.57535c-2.2710363.138402-4.059239 2.053525-4.059239 4.410998v1.153235h14.2880329v-1.153235c0-2.357473-1.788193-4.272596-4.059239-4.410998" fill="#ffd400" paint-order="stroke fill markers" data-original="#5299d3" class=""></path>
            <path id="path4184" d="m6.8788538 8.5819136v1.6203154l1.5881197 1.587499 1.5869885-1.586934v-1.6208804z" fill="#ffccaa" data-original="#ffccaa" class=""></path>
            <path id="path4218" d="m5.3817361 10.575582c-2.2710373.138402-4.059324 2.05311-4.059324 4.410583v1.153418h.5291852v-1.153418c0-2.357473 1.7882867-4.272181 4.0593231-4.410583z" fill="#b89900" paint-order="stroke fill markers" data-original="#3385c8" class=""></path>
            <path id="path4222" d="m6.3266387 9.6509986 2.1397748 2.1381514-.9170476.916361-2.1397748-2.13816z" fill="#ffea84" data-original="#a0c7e7" class=""></path>
            <path id="path4232" d="m9.3834422 12.705511 2.1397748-2.13816-.917039-.9163524-2.1397835 2.1381514z" fill="#ffea84" data-original="#a0c7e7" class=""></path>
            <path id="path4241" d="m6.8788538 8.5819046v.564823c.4517435.309174.9976814.49041 1.5875547.49041.5898694 0 1.1358132-.181236 1.5875545-.49041v-.564823z" fill="#ffb889" data-original="#ffb889" class=""></path>
            <path id="path4255" d="m4.7919478 5.6603377c-.0972345-.3407065-.1465606-.6932792-.1465591-1.047575.0000025-2.1091845 1.7107326-3.81901532 3.8210248-3.81901598 2.1102925.00000083 3.8210225 1.70983158 3.8210245 3.81901598-.000001.353709-.04917.705703-.146085 1.045889" fill="#563b3b" data-original="#356287" class=""></path>
            <path id="path4259" d="m8.4664085.79374972a3.821026 3.8190207 0 0 0 -3.8210868 3.81888898 3.821026 3.8190207 0 0 0 .1467661 1.047481h.5291842a3.821026 3.8190207 0 0 1 -.146766-1.047481 3.821026 3.8190207 0 0 1 3.5322058-3.80700298 3.821026 3.8190207 0 0 0 -.2403033-.01189z" fill="#694b4b" data-original="#2c5170" class=""></path>
            <path id="path4236" d="m5.6462322 4.7624997v1.507708c0 1.5719949 1.2578004 2.8375479 2.8201813 2.8375479 1.5623705 0 2.8201715-1.265553 2.8201715-2.8375479v-1.507708h-1.7946541c-.8933238 0-1.6506369-.699538-1.7856796-1.587797-.0093.856375-.6976881 1.587797-1.5472514 1.587797z" fill="#ffccaa" data-original="#ffccaa" class=""></path>
            <path id="path4248" d="m6.1755135 4.7614667c-.0056.000063-.01094.001-.016541.001h-.5126473v1.507918c0 1.5719949 1.2576994 2.8375529 2.8200803 2.8375529.089283 0 .1774772-.0059.2645922-.01395-1.4371166-.133642-2.5554872-1.341599-2.5554872-2.8235999z" fill="#ffb889" data-original="#ffb889" class=""></path>
            <path id="path4251" d="m5.6464182 5.3339197a.8332333.8949317 0 0 0 -.1924706-.02421.8332333.8949317 0 0 0 -.8332327.894925.8332333.8949317 0 0 0 .8332327.894935.8332333.8949317 0 0 0 .3081556-.06341" fill="#ffb889" data-original="#ffb889" class=""></path>
            <path id="path4253" d="m11.286399 5.3339197a.8332333.8949317 0 0 1 .19247-.02421.8332333.8949317 0 0 1 .833233.894934.8332333.8949317 0 0 1 -.833233.894926.8332333.8949317 0 0 1 -.308155-.06341" fill="#ffccaa" data-original="#ffccaa" class=""></path>
            <path id="path4262" d="m8.466408.52916609c-2.253218 0-4.086194 1.83174191-4.086196 4.08398791-.000002.342081.04439.687351.126095 1.006141-.09889.178962-.149349.375843-.14935.58601-.000002.627387.483872 1.158068 1.097645 1.158069.04172.000005.07965-.0024.120927-.0072.207202.5601659.56658 1.0426749 1.039248 1.3973309v.810803l-.101288-.101319c-.05092-.0504-.120099-.07799-.191727-.07648-.06805.0012-.133012.02861-.18139.07648l-.853724.8536951c-2.371342.187616-4.228312 2.194184-4.228312 4.669481v1.152385c-.000557.14612.117435.265032.263559.265617h14.289543c.146125-.000582.264116-.119497.263559-.265617v-1.152385c0-2.462715-1.857207-4.485747-4.225211-4.666381l-.856824-.8567971c-.05092-.0504-.120099-.07799-.191727-.07648-.06805.0012-.133012.02861-.18139.07648l-.101806.101803v-.809696c.466766-.353677.832482-.837493 1.039765-1.3979209.0412.0049.07876.0062.12041.0062.613769 0 1.097642-.520455 1.097646-1.158069.000001-.221564-.05506-.414568-.150384-.587044.08494-.330981.127128-.662947.127128-1.005107-.000002-2.252244-1.832978-4.08398591-4.086196-4.08398691zm3.557012 4.08398791c-.000001.18951-.01611.385805-.04444.560173-.128935-.07035-.274935-.114789-.428413-.125574v-.286287c-.000581-.145313-.11824-.262969-.263558-.26355h-1.794786c-.755189 0-1.407938-.599873-1.523991-1.363225-.01942-.127698-.128202-.222716-.257358-.224792-.147131-.0029-.268336.114853-.269759.261999-.0078.716257-.58341 1.326018-1.281103 1.326018h-.513682c-.14552.000291-.263493.118035-.264076.26355v.286287c-.153413.01081-.298492.05422-.427378.12454-.03014-.186484-.04496-.369706-.04496-.559139.000002-1.966123 1.589129-3.554304 3.556493-3.554305 1.967365.000001 3.557008 1.588182 3.557011 3.554305zm-4.271752-.574966c.300917.492871.924515.989411 1.740553.989411h1.529159v1.241785c0 1.4308649-1.145819 2.5745199-2.554972 2.5745199-1.413286 0-2.554454-1.143655-2.554454-2.5745199v-1.241785h.248056c.779984 0 1.357269-.517739 1.591658-.989411zm-2.369416 1.540799v.690397c0 .192937.01665.381081.05013.564306-.298209-.01112-.54779-.283188-.547789-.628385.000002-.324838.223308-.587557.497659-.626318zm6.168312.001c.274089.03876.496112.293137.496111.625285-.000002.353463-.254305.61749-.546239.628386.03347-.183225.05013-.37137.05013-.564307zm-4.406084 3.4959129c.390205.186804.847867.297139 1.321928.297139.474059 0 .921452-.106204 1.322446-.298173v1.0180271l-1.322446 1.32085-1.321928-1.320333zm-.817549.9498141 1.76481 1.7632-.543137.543119-1.764812-1.76475zm4.278438-.000503.543139.542086-1.765845 1.763716-.541071-.542085zm1.014444.819071c2.089721.175873 3.726 1.955384 3.726 4.141852v.888835h-2.380816v-1.05885c.0015-.149173-.120602-.270073-.269761-.267167-.145316.0026-.261368.12184-.259941.267167v1.05885h-7.937774v-1.05885c.0015-.148967-.120287-.269778-.269243-.267167-.145316.0026-.261369.12184-.259942.267167v1.05885h-2.380815v-.888835c0-2.189227 1.634281-3.969872 3.726694-4.140138l2.048863 2.046726c.103212.102598.269906.102598.373117 0l.730213-.729154.730731.729154c.103211.102598.269904.102598.373116 0z" font-variant-ligatures="normal" font-variant-position="normal" font-variant-caps="normal" font-variant-numeric="normal" font-variant-alternates="normal" font-feature-settings="normal" text-indent="0" text-align="start" text-decoration-line="none" text-decoration-style="solid" text-decoration-color="#000000" text-transform="none" text-orientation="mixed" white-space="normal" shape-padding="0" isolation="auto" mix-blend-mode="normal" solid-color="#000000" solid-opacity="1" vector-effect="none" fill="#000000" data-original="#000000" class=""></path>
        </g>
    </g>
</svg>