<svg xmlns="http://www.w3.org/2000/svg" version="1.1" xmlns:xlink="http://www.w3.org/1999/xlink" xmlns:svgjs="http://svgjs.com/svgjs" width="512" height="512" x="0" y="0" viewBox="0 0 512 512" style="enable-background:new 0 0 512 512" xml:space="preserve" class=""><g><g xmlns="http://www.w3.org/2000/svg"><g clip-rule="evenodd" fill-rule="evenodd"><path d="m46.361 54.285h273.149c14.061 0 25.598 11.509 25.598 25.597v406.521c0 14.088-11.537 25.597-25.598 25.597h-273.149c-14.088 0-25.597-11.509-25.597-25.597v-406.521c0-14.088 11.51-25.597 25.597-25.597z" fill="#f9f7f8" data-original="#f9f7f8" class=""></path><path d="m294.508 54.285h25.003c14.061 0 25.598 11.509 25.598 25.597v406.521c0 14.088-11.537 25.597-25.598 25.597h-25.003c14.061 0 25.599-11.509 25.599-25.597v-406.521c0-14.088-11.538-25.597-25.599-25.597z" fill="#dddaec" data-original="#dddaec"></path><path d="m158.36 0h49.153c12.161 0 22.564 8.107 25.938 19.219 2.042 6.634 2.948 7.909 9.184 7.909h10.942c14.939 0 27.126 12.218 27.126 27.157 0 14.91-12.188 27.127-27.126 27.127h-141.28c-14.939 0-27.156-12.217-27.156-27.127 0-14.939 12.217-27.157 27.156-27.157h10.941c6.208 0 7.144-1.275 9.185-7.909 3.373-11.112 13.776-19.219 25.937-19.219z" fill="#ffe07d" data-original="#ffe07d" class=""></path><path d="m182.511 0h25.002c12.161 0 22.564 8.107 25.938 19.219 2.042 6.634 2.948 7.909 9.184 7.909h10.942c14.939 0 27.126 12.218 27.126 27.157 0 14.91-12.188 27.127-27.126 27.127h-25.003c14.939 0 27.157-12.217 27.157-27.127 0-14.939-12.218-27.157-27.157-27.157h-10.941c-6.236 0-7.143-1.275-9.185-7.909-3.373-11.112-13.776-19.219-25.937-19.219z" fill="#ffd064" data-original="#ffd064"></path>
<path d="m73.773 138.957h28.006c4.394 0 7.994 3.6 7.994 7.993v28.007c0 4.394-3.6 7.993-7.994 7.993h-28.006c-4.394 0-7.994-3.6-7.994-7.993v-28.007c.001-4.393 3.601-7.993 7.994-7.993zm0 252.003h28.006c4.394 0 7.994 3.6 7.994 8.021v27.979c0 4.422-3.6 7.993-7.994 7.993h-28.006c-4.394 0-7.994-3.571-7.994-7.993v-27.979c.001-4.421 3.601-8.021 7.994-8.021zm0-83.991h28.006c4.394 0 7.994 3.6 7.994 7.993v28.007c0 4.392-3.6 7.993-7.994 7.993h-28.006c-4.394 0-7.994-3.601-7.994-7.993v-28.007c.001-4.394 3.601-7.993 7.994-7.993zm0-83.992h28.006c4.394 0 7.994 3.601 7.994 7.993v28.007c0 4.393-3.6 7.993-7.994 7.993h-28.006c-4.394 0-7.994-3.6-7.994-7.993v-28.007c.001-4.393 3.601-7.993 7.994-7.993z" fill="#ff6270" data-original="#ff6270" class=""></path></g><path d="m308.03 321.453c4.139 0 7.484 3.373 7.484 7.512s-3.346 7.512-7.484 7.512h-161.18c-4.139 0-7.512-3.373-7.512-7.512s3.373-7.512 7.512-7.512zm0-167.982c4.139 0 7.484 3.344 7.484 7.482 0 4.139-3.346 7.512-7.484 7.512h-161.18c-4.139 0-7.512-3.373-7.512-7.512s3.373-7.482 7.512-7.482zm0 83.991c4.139 0 7.484 3.373 7.484 7.512s-3.346 7.483-7.484 7.483h-161.18c-4.139 0-7.512-3.345-7.512-7.483 0-4.139 3.373-7.512 7.512-7.512z" fill="#365e7d" data-original="#365e7d" class=""></path>
<path d="m465.701 364.166c-1.389-32.916-22.326-61.085-51.478-73.008l-82.723 12.024-10 95.354 10 102.102c26.846 17.688 63.301 14.723 86.923-8.899 11.09-11.09 17.624-25.008 19.606-39.432 1.99-14.479 7.296-28.24 15.086-40.607 8.608-13.664 13.326-30.024 12.586-47.534z" fill="#dd005e" data-original="#dd005e" class=""></path>
<path d="m275.278 285.199c-42.218 2.299-76.197 36.724-77.98 78.967-.739 17.51 3.978 33.87 12.586 47.535 7.79 12.367 13.096 26.127 15.086 40.606 1.983 14.424 8.516 28.342 19.606 39.432 23.622 23.622 60.077 26.588 86.923 8.899v-197.456c-15.252-12.209-34.909-19.144-56.221-17.983z" fill="#ff0076" data-original="#ff0076" class=""></path>
<path d="m331.5 303.182h50.145c27.694 0 50.145-22.451 50.145-50.145v-33.43h-50.145c-27.694 0-50.145 22.451-50.145 50.145z" fill="#00c9e9" data-original="#00c9e9" class=""></path>
</g></g></svg> 