<svg xmlns="http://www.w3.org/2000/svg" version="1.1"
    xmlns:xlink="http://www.w3.org/1999/xlink"
    xmlns:svgjs="http://svgjs.com/svgjs" width="512" height="512" x="0" y="0" viewBox="0 0 512.001 512.001" style="enable-background:new 0 0 512 512" xml:space="preserve" class="">
    <g>
        <path xmlns="http://www.w3.org/2000/svg" style="" d="M501.313,137.361c-6.032-9.099-18.428-10.335-26.107-3.237l-44.949,41.59  c-2.532,2.343-6.222,2.946-9.368,1.53l-38.1-17.145c-3.813-1.715-8.238-0.373-10.617,3.064c-8.603,12.42-22.082,18.53-33.185,13.87  c-11.484-4.82-16.57-19.523-13.077-34.928c0.906-3.994-1.062-8.079-4.796-9.76l-41.693-18.762  c-15.195-6.838-32.972-4.28-45.624,6.563l-47.055,40.333c-6.502,5.573-8.722,15.179-4.27,22.493  c5.677,9.326,18.024,11.03,25.959,4.221l47.756-40.932c2.53-2.169,6.087-2.681,9.127-1.313l19.843,8.929  c8.745,3.935,12.582,14.261,8.53,22.952l-67.919,145.649c-1.848,3.96-6.357,5.916-10.513,4.522l-68.459-22.777l-11.645,32.364  l75.255,25.018c4.497,1.499,9.081,2.217,13.603,2.217c16.303,0,31.725-9.33,38.955-24.834l19.188-37.484l79.642,32.925  c2.368,0.987,4.156,2.956,4.912,5.412l28.304,88.138h34.395l-31.595-105.269c-3.771-12.251-12.718-22.11-24.558-27.048  l-42.661-17.775l32.746-70.222c3.976-8.527,14.064-12.275,22.643-8.415l20.794,9.358c5.676,2.553,11.689,3.8,17.66,3.8  c10.606,0,21.061-3.934,29.184-11.445l44.298-40.984C504.195,154.166,506.041,144.491,501.313,137.361z" fill="#f5c882" data-original="#f5c882" class=""></path>
        <path xmlns="http://www.w3.org/2000/svg" style="" d="M229.465,314.544l-3.7,7.933c-1.848,3.96-6.357,5.916-10.513,4.522l12.291,3.943  c7.681,2.464,15.985-1.244,19.279-8.606l0.232-0.52L229.465,314.544z" fill="#f5af73" data-original="#f5af73"></path>
        <g xmlns="http://www.w3.org/2000/svg">
            <path style="" d="M455.199,462.372h-60.192v-34.395h34.395c14.247,0,25.796,11.549,25.796,25.796V462.372z" fill="#d5dced" data-original="#d5dced"></path>
            <path style="" d="M94.049,349.214l20.378-56.637l32.364,11.645l-11.645,32.364   c-4.824,13.406-19.601,20.363-33.007,15.539L94.049,349.214z" fill="#d5dced" data-original="#d5dced"></path>
        </g>
        <path xmlns="http://www.w3.org/2000/svg" style="" d="M377.81,127.019L377.81,127.019c-18.996,0-34.395-15.399-34.395-34.395V75.426  c0-14.247,11.549-25.796,25.796-25.796h42.994v42.994C412.205,111.619,396.806,127.019,377.81,127.019z" fill="#f5c882" data-original="#f5c882" class=""></path>
        <path xmlns="http://www.w3.org/2000/svg" style="" d="M363.335,207.664c3.976-8.527,14.064-12.275,22.643-8.415l5.912,2.66l14.741-31.083l-23.843-10.729  c-3.813-1.715-8.238-0.373-10.617,3.064c-8.603,12.42-22.082,18.53-33.185,13.87c-11.484-4.82-16.57-19.523-13.077-34.928  c0.906-3.994-1.062-8.079-4.796-9.76l-26.469-11.912l-14.738,31.081l5.249,2.361c8.745,3.935,12.582,14.261,8.53,22.952  l-33.534,71.912l70.45,29.124L363.335,207.664z" fill="#7df5a5" data-original="#7df5a5"></path>
        <g xmlns="http://www.w3.org/2000/svg">
            <polygon style="" points="330.599,277.864 260.149,248.741 229.465,314.544 267.437,330.242 282.148,301.503    346.972,328.301 361.932,290.944 330.59,277.886  " fill="#5b5d6e" data-original="#5b5d6e"></polygon>
            <path style="opacity:0.27;enable-background:new    ;" d="M301.41,160.761l-16.256-6.884   c8.745,3.935,12.582,14.261,8.53,22.952l-33.534,71.912l16.532,6.835l33.002-73.783   C313.303,173.703,309.571,164.217,301.41,160.761z" fill="#5b5d6e" data-original="#5b5d6e"></path>
        </g>
        <polygon xmlns="http://www.w3.org/2000/svg" style="" points="276.682,255.576 260.149,248.741 229.465,314.544 247.053,321.816 " fill="#464655" data-original="#464655"></polygon>
        <path xmlns="http://www.w3.org/2000/svg" style="" d="M293.684,176.828l-33.534,71.912l16.532,6.835l33.002-73.783c3.619-8.09-0.113-17.576-8.274-21.032  l-16.256-6.884C293.899,157.812,297.736,168.138,293.684,176.828z" fill="#64dca0" data-original="#64dca0"></path>
        <path xmlns="http://www.w3.org/2000/svg" style="" d="M369.211,92.623V75.426c0-14.247,11.549-25.796,25.796-25.796h-25.796  c-14.247,0-25.796,11.549-25.796,25.796v17.198c0,18.996,15.399,34.395,34.395,34.395c4.568,0,8.909-0.933,12.898-2.551  C378.113,119.36,369.211,107.05,369.211,92.623z" fill="#f5af73" data-original="#f5af73"></path>
        <path xmlns="http://www.w3.org/2000/svg" style="" d="M369.211,49.629c-14.247,0-25.796,11.549-25.796,25.796v17.198c0,2.987,0.5,5.835,1.216,8.599h15.377  c5.75,0,11.119-2.874,14.309-7.658l6.987-10.48c3.189-4.784,8.559-7.658,14.309-7.658h16.592V49.629  C412.205,49.629,369.211,49.629,369.211,49.629z" fill="#6e4848" data-original="#6e4848"></path>
        <path xmlns="http://www.w3.org/2000/svg" style="" d="M343.415,75.426v17.198c0,2.987,0.5,5.835,1.216,8.599h15.377c3.521,0,6.831-1.183,9.653-3.118  c-0.287-1.786-0.449-3.613-0.449-5.481V75.426c0-14.247,11.549-25.796,25.796-25.796h-25.796  C354.964,49.629,343.415,61.179,343.415,75.426z" fill="#643c3e" data-original="#643c3e"></path>
        <path xmlns="http://www.w3.org/2000/svg" d="M239.692,230.2c0-4.452-3.609-8.061-8.061-8.061H8.061C3.609,222.139,0,225.748,0,230.2c0,4.452,3.609,8.061,8.061,8.061  H231.63C236.082,238.261,239.692,234.652,239.692,230.2z" fill="#000000" data-original="#000000" class=""></path>
        <path xmlns="http://www.w3.org/2000/svg" d="M76.852,203.866l68.79,0.004l0,0c4.452,0,8.061-3.608,8.061-8.061c0-4.453-3.608-8.061-8.061-8.061l-68.79-0.004l0,0  c-4.452,0-8.061,3.608-8.061,8.061S72.399,203.865,76.852,203.866z" fill="#000000" data-original="#000000" class=""></path>
        <path xmlns="http://www.w3.org/2000/svg" d="M119.846,169.475L119.846,169.475l25.798-0.004c4.453,0,8.061-3.61,8.06-8.062c0-4.452-3.609-8.06-8.061-8.06h-0.001  l-25.796,0.004c-4.453,0-8.061,3.61-8.06,8.062C111.785,165.867,115.394,169.475,119.846,169.475z" fill="#000000" data-original="#000000" class=""></path>
        <path xmlns="http://www.w3.org/2000/svg" d="M222.494,264.595c0-4.452-3.609-8.061-8.061-8.061H76.852c-4.452,0-8.061,3.609-8.061,8.061s3.609,8.061,8.061,8.061  h137.581C218.885,272.657,222.494,269.047,222.494,264.595z" fill="#000000" data-original="#000000" class=""></path>
        <path xmlns="http://www.w3.org/2000/svg" d="M25.259,203.866h17.198c4.452,0,8.061-3.609,8.061-8.061s-3.609-8.061-8.061-8.061H25.259c-4.452,0-8.061,3.609-8.061,8.061  S20.807,203.866,25.259,203.866z" fill="#000000" data-original="#000000" class=""></path>
        <path xmlns="http://www.w3.org/2000/svg" d="M382.671,206.601l20.795,9.359c6.653,2.991,13.707,4.509,20.966,4.509c12.872,0,25.181-4.825,34.66-13.589l44.298-40.984  c9.369-8.668,11.365-22.849,4.642-32.988c-4.146-6.252-10.752-10.347-18.124-11.233c-7.368-0.884-14.724,1.494-20.176,6.533  l-44.947,41.589c-0.16,0.148-0.39,0.185-0.587,0.097l-38.099-17.145c-7.299-3.285-15.941-0.834-20.553,5.825  c-6.592,9.517-16.23,14.052-23.438,11.027c-7.494-3.145-10.999-13.959-8.333-25.713c1.75-7.722-2.182-15.667-9.35-18.893  l-41.695-18.763c-17.961-8.082-39.227-5.022-54.178,7.794l-47.056,40.333c-9.695,8.31-12.236,22.414-5.91,32.806  c3.903,6.41,10.349,10.755,17.688,11.92c7.333,1.164,14.774-0.939,20.403-5.771l47.756-40.932c0.158-0.134,0.383-0.167,0.573-0.083  l19.843,8.93c2.246,1.011,3.957,2.84,4.814,5.15s0.758,4.811-0.284,7.043L218.46,319.067c-0.118,0.253-0.39,0.375-0.663,0.282  l-100.639-34.358c-4.191-1.508-8.807,0.666-10.314,4.856l-20.378,56.637c-0.723,2.012-0.619,4.228,0.291,6.163  c0.91,1.934,2.553,3.428,4.565,4.151l8.091,2.911c3.774,1.358,7.633,2.001,11.43,2.001c11.319,0,22.081-5.725,28.36-15.317  l68.652,22.856c5.237,1.746,10.671,2.63,16.153,2.63c19.698,0,37.813-11.515,46.195-29.349l15.737-30.742l72.753,30.077  c0.157,0.066,0.258,0.177,0.32,0.38l27.933,89.164v30.961c0,4.452,3.609,8.061,8.061,8.061h60.192c4.452,0,8.061-3.609,8.061-8.061  v-8.599c0-16.19-11.427-29.756-26.637-33.074l-31.111-100.361c-4.478-14.55-15.106-26.256-29.162-32.118l-34.905-14.543  l29.195-62.606C372.742,206.566,378.138,204.562,382.671,206.601z M435.733,181.63l44.945-41.587  c1.971-1.822,4.627-2.684,7.306-2.363c2.712,0.327,5.06,1.794,6.611,4.135c2.363,3.563,1.417,8.942-2.154,12.245l-44.296,40.982  c-6.489,6-14.91,9.303-23.712,9.303c-4.964,0-9.793-1.039-14.351-3.09l-7.383-3.322l7.83-16.512l7.052,3.174  C423.688,187.343,430.814,186.18,435.733,181.63z M250.938,140.14l-47.759,40.935c-2.036,1.747-4.724,2.507-7.381,2.085  c-2.696-0.428-4.984-1.983-6.443-4.38c-2.226-3.658-1.072-9.008,2.63-12.181l47.056-40.333c10.23-8.77,24.782-10.862,37.069-5.332  l7.726,3.477l-7.83,16.511l-7.39-3.326C262.757,134.959,255.818,135.957,250.938,140.14z M104.87,344.541l-0.506-0.182l14.92-41.467  l17.193,6.186l-8.916,24.779C124.252,343.058,114.072,347.851,104.87,344.541z M255.654,335.58  c-5.716,12.259-18.139,20.18-31.649,20.18c-3.746,0-7.465-0.606-11.057-1.805l-67.409-22.442l6.174-17.158l60.975,20.287  c8.035,2.694,16.796-1.071,20.382-8.758l0.441-0.945l22.765,9.411l-0.492,0.962C255.739,335.401,255.696,335.49,255.654,335.58z   M447.138,453.773v0.537h-44.069v-18.272h26.334C439.182,436.038,447.138,443.994,447.138,453.773z M390.109,325.095l29.393,94.82  H400.24l-25.831-82.448c-1.462-4.751-4.93-8.572-9.538-10.492l-7.452-3.081l8.958-22.367l3.771,1.571  C379.765,307.112,387.039,315.123,390.109,325.095z M356.029,204.257l-29.478,63.212l-31.65-13.084  c-4.115-1.699-8.828,0.256-10.529,4.37c-1.701,4.115,0.256,8.829,4.37,10.529l62.75,26.044l-8.974,22.407l-57.291-23.683  c-3.878-1.604-8.342,0.039-10.256,3.777l-11.325,22.124l-23.316-9.639l60.657-130.077c2.878-6.174,3.158-13.09,0.785-19.474  c-2.084-5.607-5.986-10.187-11.113-13.113l7.882-16.619l19.262,8.668c0.24,0.109,0.293,0.4,0.243,0.624  c-4.47,19.713,2.857,37.866,17.819,44.144c14.303,6.003,31.959-0.871,42.932-16.713c0.155-0.224,0.435-0.413,0.683-0.302  l16.343,7.354l-7.849,16.551C375.732,186.657,361.636,192.235,356.029,204.257z" fill="#000000" data-original="#000000" class=""></path>
        <path xmlns="http://www.w3.org/2000/svg" d="M377.81,135.08c23.41,0,42.457-19.046,42.457-42.457V49.629c0-4.452-3.609-8.061-8.061-8.061h-42.994  c-18.669,0-33.858,15.189-33.858,33.858v17.198C335.354,116.034,354.4,135.08,377.81,135.08z M351.476,75.426  c0-9.779,7.956-17.735,17.735-17.735h34.933v34.933c0,14.52-11.813,26.334-26.334,26.334l0,0c-14.52,0-26.334-11.814-26.334-26.334  V75.426z" fill="#000000" data-original="#000000" class=""></path>
        <g xmlns="http://www.w3.org/2000/svg">
        </g>
        <g xmlns="http://www.w3.org/2000/svg">
        </g>
        <g xmlns="http://www.w3.org/2000/svg">
        </g>
        <g xmlns="http://www.w3.org/2000/svg">
        </g>
        <g xmlns="http://www.w3.org/2000/svg">
        </g>
        <g xmlns="http://www.w3.org/2000/svg">
        </g>
        <g xmlns="http://www.w3.org/2000/svg">
        </g>
        <g xmlns="http://www.w3.org/2000/svg">
        </g>
        <g xmlns="http://www.w3.org/2000/svg">
        </g>
        <g xmlns="http://www.w3.org/2000/svg">
        </g>
        <g xmlns="http://www.w3.org/2000/svg">
        </g>
        <g xmlns="http://www.w3.org/2000/svg">
        </g>
        <g xmlns="http://www.w3.org/2000/svg">
        </g>
        <g xmlns="http://www.w3.org/2000/svg">
        </g>
        <g xmlns="http://www.w3.org/2000/svg">
        </g>
    </g>
</svg>