<svg xmlns="http://www.w3.org/2000/svg" version="1.1"
    xmlns:xlink="http://www.w3.org/1999/xlink"
    xmlns:svgjs="http://svgjs.com/svgjs" width="512" height="512" x="0" y="0" viewBox="0 0 16.933333 16.933334" style="enable-background:new 0 0 512 512" xml:space="preserve" class="">
    <g>
        <g xmlns="http://www.w3.org/2000/svg" id="layer1" transform="translate(0 -280.067)">
            <path id="path10308" d="m8.4666672 280.5958c-4.380627 0-7.93750035 3.55687-7.93750035 7.9375 0 4.38062 3.55687335 7.9375 7.93750035 7.9375 4.3806268 0 7.9374998-3.55688 7.9374998-7.9375 0-4.38063-3.556873-7.9375-7.9374998-7.9375z" fill="#ff6b6b" font-variant-ligatures="normal" font-variant-position="normal" font-variant-caps="normal" font-variant-numeric="normal" font-variant-alternates="normal" font-feature-settings="normal" text-indent="0" text-align="start" text-decoration-line="none" text-decoration-style="solid" text-decoration-color="#000000" text-transform="none" text-orientation="mixed" white-space="normal" shape-padding="0" isolation="auto" mix-blend-mode="normal" solid-color="#000000" solid-opacity="1" vector-effect="none" data-original="#ff6b6b" class=""></path>
            <path id="path10318" d="m8.4666672 282.44736c-3.35775 0-6.0859337 2.72819-6.0859337 6.08594s2.7281837 6.08593 6.0859337 6.08593c3.3577488 0 6.0859328-2.72818 6.0859328-6.08593s-2.728184-6.08594-6.0859328-6.08594z" fill="#dbe9ee" font-variant-ligatures="normal" font-variant-position="normal" font-variant-caps="normal" font-variant-numeric="normal" font-variant-alternates="normal" font-feature-settings="normal" text-indent="0" text-align="start" text-decoration-line="none" text-decoration-style="solid" text-decoration-color="#000000" text-transform="none" text-orientation="mixed" white-space="normal" shape-padding="0" isolation="auto" mix-blend-mode="normal" solid-color="#000000" solid-opacity="1" vector-effect="none" data-original="#dbe9ee" class=""></path>
            <path id="path10313" d="m8.4666672 284.29893c-2.334872 0-4.2343672 1.8995-4.2343672 4.23437s1.8994952 4.2323 4.2343672 4.2323c2.3348708 0 4.2322988-1.89743 4.2322988-4.2323s-1.897428-4.23437-4.2322988-4.23437z" fill="#ff6b6b" font-variant-ligatures="normal" font-variant-position="normal" font-variant-caps="normal" font-variant-numeric="normal" font-variant-alternates="normal" font-feature-settings="normal" text-indent="0" text-align="start" text-decoration-line="none" text-decoration-style="solid" text-decoration-color="#000000" text-transform="none" text-orientation="mixed" white-space="normal" shape-padding="0" isolation="auto" mix-blend-mode="normal" solid-color="#000000" solid-opacity="1" vector-effect="none" data-original="#ff6b6b" class=""></path>
            <path id="path10323" d="m8.4666672 286.15256c-1.311995 0-2.380734 1.06874-2.380734 2.38074 0 1.31199 1.068739 2.38073 2.380734 2.38073 1.311994 0 2.3807328-1.06874 2.3807328-2.38073 0-1.312-1.0687388-2.38074-2.3807328-2.38074z" fill="#dbe9ee" font-variant-ligatures="normal" font-variant-position="normal" font-variant-caps="normal" font-variant-numeric="normal" font-variant-alternates="normal" font-feature-settings="normal" text-indent="0" text-align="start" text-decoration-line="none" text-decoration-style="solid" text-decoration-color="#000000" text-transform="none" text-orientation="mixed" white-space="normal" shape-padding="0" isolation="auto" mix-blend-mode="normal" solid-color="#000000" solid-opacity="1" vector-effect="none" data-original="#dbe9ee" class=""></path>
            <path id="path10337" d="m13.486515 280.5958a.26460982.26460982 0 0 0 -.179834.078l-1.851566 1.85156a.26460982.26460982 0 0 0 -.07803.18759v2.6448a.26460982.26460982 0 0 0 .265617.26562h2.644283a.26460982.26460982 0 0 0 .187585-.078l1.851567-1.85157a.26460982.26460982 0 0 0 -.187585-.45114h-2.380734v-2.38331a.26460982.26460982 0 0 0 -.271301-.26355z" fill="#ffbc42" font-variant-ligatures="normal" font-variant-position="normal" font-variant-caps="normal" font-variant-numeric="normal" font-variant-alternates="normal" font-feature-settings="normal" text-indent="0" text-align="start" text-decoration-line="none" text-decoration-style="solid" text-decoration-color="#000000" text-transform="none" text-orientation="mixed" white-space="normal" shape-padding="0" isolation="auto" mix-blend-mode="normal" solid-color="#000000" solid-opacity="1" vector-effect="none" data-original="#ffbc42"></path>
            <path id="path10330" d="m14.552083 281.62467c-.212025 0-.423804.0802-.583943.2403l-6.0848998 6.0849c-.32028.32028-.32028.84812 0 1.1684s.846574.31873 1.166854-.002l6.0848988-6.08489c.32028-.32028.321812-.84657.0016-1.16685-.16014-.16014-.372435-.2403-.584461-.2403z" fill="#33658a" font-variant-ligatures="normal" font-variant-position="normal" font-variant-caps="normal" font-variant-numeric="normal" font-variant-alternates="normal" font-feature-settings="normal" text-indent="0" text-align="start" text-decoration-line="none" text-decoration-style="solid" text-decoration-color="#000000" text-transform="none" text-orientation="mixed" white-space="normal" shape-padding="0" isolation="auto" mix-blend-mode="normal" solid-color="#000000" solid-opacity="1" vector-effect="none" data-original="#33658a"></path>
        </g>
    </g>
</svg>