<svg xmlns="http://www.w3.org/2000/svg" version="1.1"
    xmlns:xlink="http://www.w3.org/1999/xlink"
    xmlns:svgjs="http://svgjs.com/svgjs" width="512" height="512" x="0" y="0" viewBox="0 0 512 512" style="enable-background:new 0 0 512 512" xml:space="preserve" class="">
    <g>
        <g xmlns="http://www.w3.org/2000/svg" clip-rule="evenodd" fill-rule="evenodd">
            <ellipse cx="256" cy="256.002" fill="#d3effb" rx="240" ry="240" transform="matrix(.707 -.707 .707 .707 -106.04 256)" data-original="#97de3d" class=""></ellipse>
            <path d="m256 16.001c132.549 0 240 107.452 240 240 0 132.549-107.452 240.001-240 240.001z" fill="#b1e4f9" data-original="#59c36a" class=""></path>
            <path d="m324.667 237.114-57.359-57.354c-6.242-6.247-16.38-6.247-22.617 0l-57.364 57.354c-6.246 6.251-6.246 16.38 0 22.631 6.251 6.247 16.38 6.247 22.631 0l30.038-30.043v266.296c0 8.841 7.162 16.003 16.003 16.003s15.998-7.161 15.998-16.003v-266.295l30.043 30.043c3.128 3.123 7.218 4.685 11.318 4.685 4.09 0 8.19-1.562 11.309-4.685 6.251-6.252 6.251-16.381 0-22.632zm112.354-162.131c48.348 48.353 74.98 112.637 74.98 181.022 0 100.904-59.562 192.698-151.734 233.856-8.067 3.6-17.527-.019-21.131-8.091-3.609-8.067.014-17.531 8.082-21.131 80.66-36.021 132.782-116.336 132.782-204.634 0-123.517-100.493-224.001-224-224.001-123.512 0-224.001 100.484-224.001 224.001 0 88.298 52.122 168.614 132.782 204.634 8.067 3.6 11.686 13.064 8.077 21.131-2.651 5.949-8.487 9.483-14.606 9.483-2.18 0-4.402-.453-6.52-1.392-92.172-41.158-151.734-132.952-151.734-233.856 0-68.384 26.632-132.669 74.98-181.022 48.353-48.353 112.642-74.98 181.022-74.98 68.379 0 132.669 26.627 181.021 74.98z" fill="#000000" data-original="#000000" class=""></path>
        </g>
    </g>
</svg>