<svg xmlns="http://www.w3.org/2000/svg" version="1.1" xmlns:xlink="http://www.w3.org/1999/xlink" xmlns:svgjs="http://svgjs.com/svgjs" width="512" height="512" x="0" y="0" viewBox="0 0 512 512" style="enable-background:new 0 0 512 512" xml:space="preserve" class=""><g><g xmlns="http://www.w3.org/2000/svg"><g clip-rule="evenodd" fill-rule="evenodd"><path d="m46.361 54.285h273.149c14.061 0 25.598 11.509 25.598 25.597v406.521c0 14.088-11.537 25.597-25.598 25.597h-273.149c-14.088 0-25.597-11.509-25.597-25.597v-406.521c0-14.088 11.51-25.597 25.597-25.597z" fill="#f9f7f8" data-original="#f9f7f8" class=""></path><path d="m294.508 54.285h25.003c14.061 0 25.598 11.509 25.598 25.597v406.521c0 14.088-11.537 25.597-25.598 25.597h-25.003c14.061 0 25.599-11.509 25.599-25.597v-406.521c0-14.088-11.538-25.597-25.599-25.597z" fill="#dddaec" data-original="#dddaec"></path><path d="m158.36 0h49.153c12.161 0 22.564 8.107 25.938 19.219 2.042 6.634 2.948 7.909 9.184 7.909h10.942c14.939 0 27.126 12.218 27.126 27.157 0 14.91-12.188 27.127-27.126 27.127h-141.28c-14.939 0-27.156-12.217-27.156-27.127 0-14.939 12.217-27.157 27.156-27.157h10.941c6.208 0 7.144-1.275 9.185-7.909 3.373-11.112 13.776-19.219 25.937-19.219z" fill="#ffe07d" data-original="#ffe07d" class=""></path><path d="m182.511 0h25.002c12.161 0 22.564 8.107 25.938 19.219 2.042 6.634 2.948 7.909 9.184 7.909h10.942c14.939 0 27.126 12.218 27.126 27.157 0 14.91-12.188 27.127-27.126 27.127h-25.003c14.939 0 27.157-12.217 27.157-27.127 0-14.939-12.218-27.157-27.157-27.157h-10.941c-6.236 0-7.143-1.275-9.185-7.909-3.373-11.112-13.776-19.219-25.937-19.219z" fill="#ffd064" data-original="#ffd064"></path><path d="m224.096 477.077h-44.986c-4.422 0-8.022-3.6-8.022-7.993v-65.198c0-4.394 3.6-7.994 8.022-7.994h44.986c4.394 0 7.993 3.601 7.993 7.994v65.198c0 4.393-3.599 7.993-7.993 7.993z" fill="#0b5e7e" data-original="#0b5e7e"></path><path d="m435.592 477.077h47.651c4.392 0 7.992-3.6 7.992-7.993v-65.198c0-4.394-3.6-7.994-7.992-7.994h-47.651c-4.395 0-7.994 3.601-7.994 7.994v65.198c0 4.393 3.6 7.993 7.994 7.993z" fill="#0b5e7e" data-original="#0b5e7e"></path><path d="m458.24 477.077h25.003c4.392 0 7.992-3.6 7.992-7.993v-65.198c0-4.394-3.6-7.994-7.992-7.994h-25.003c4.393 0 7.994 3.601 7.994 7.994v65.198c.001 4.393-3.601 7.993-7.994 7.993z" fill="#034e6b" data-original="#034e6b"></path><path d="m264.235 417.577h133.854v37.814h-133.854z" fill="#afd2fc" data-original="#afd2fc"></path><path d="m264.178 512h-34.555c-4.393 0-7.994-3.6-7.994-7.994v-135.044c0-4.394 3.6-7.993 7.994-7.993h34.555c4.395 0 7.994 3.6 7.994 7.993v135.044c0 4.394-3.599 7.994-7.994 7.994zm133.967 0h34.555c4.395 0 7.994-3.6 7.994-7.994v-135.044c0-4.394-3.6-7.993-7.994-7.993h-34.555c-4.393 0-7.992 3.6-7.992 7.993v135.044c-.001 4.394 3.599 7.994 7.992 7.994z" fill="#365e7d" data-original="#365e7d" class=""></path><path d="m264.178 512h-25.001c4.394 0 7.994-3.6 7.994-7.994v-135.044c0-4.394-3.601-7.993-7.994-7.993h25.001c4.395 0 7.994 3.6 7.994 7.993v135.044c0 4.394-3.599 7.994-7.994 7.994zm143.52 0h25.002c4.395 0 7.994-3.6 7.994-7.994v-135.044c0-4.394-3.6-7.993-7.994-7.993h-25.002c4.395 0 7.994 3.6 7.994 7.993v135.044c0 4.394-3.6 7.994-7.994 7.994z" fill="#2b4d66" data-original="#2b4d66" class=""></path><path d="m73.773 138.957h28.006c4.394 0 7.994 3.6 7.994 7.993v28.007c0 4.394-3.6 7.993-7.994 7.993h-28.006c-4.394 0-7.994-3.6-7.994-7.993v-28.007c.001-4.393 3.601-7.993 7.994-7.993zm0 252.003h28.006c4.394 0 7.994 3.6 7.994 8.021v27.979c0 4.422-3.6 7.993-7.994 7.993h-28.006c-4.394 0-7.994-3.571-7.994-7.993v-27.979c.001-4.421 3.601-8.021 7.994-8.021zm0-83.991h28.006c4.394 0 7.994 3.6 7.994 7.993v28.007c0 4.392-3.6 7.993-7.994 7.993h-28.006c-4.394 0-7.994-3.601-7.994-7.993v-28.007c.001-4.394 3.601-7.993 7.994-7.993zm0-83.992h28.006c4.394 0 7.994 3.601 7.994 7.993v28.007c0 4.393-3.6 7.993-7.994 7.993h-28.006c-4.394 0-7.994-3.6-7.994-7.993v-28.007c.001-4.393 3.601-7.993 7.994-7.993z" fill="#ff6270" data-original="#ff6270" class=""></path></g><path d="m308.03 321.453c4.139 0 7.484 3.373 7.484 7.512s-3.346 7.512-7.484 7.512h-161.18c-4.139 0-7.512-3.373-7.512-7.512s3.373-7.512 7.512-7.512zm0-167.982c4.139 0 7.484 3.344 7.484 7.482 0 4.139-3.346 7.512-7.484 7.512h-161.18c-4.139 0-7.512-3.373-7.512-7.512s3.373-7.482 7.512-7.482zm0 83.991c4.139 0 7.484 3.373 7.484 7.512s-3.346 7.483-7.484 7.483h-161.18c-4.139 0-7.512-3.345-7.512-7.483 0-4.139 3.373-7.512 7.512-7.512z" fill="#365e7d" data-original="#365e7d" class=""></path><path clip-rule="evenodd" d="m196.628 395.892h25.001v81.186h-25.001z" fill="#034e6b" fill-rule="evenodd" data-original="#034e6b"></path><path clip-rule="evenodd" d="m365.15 417.577h25.003v37.814h-25.003z" fill="#8fb2f7" fill-rule="evenodd" data-original="#8fb2f7"></path></g></g></svg>